<?xml version="1.0" encoding="UTF-8"?>
<svg xmlns="http://www.w3.org/2000/svg" xmlns:xlink="http://www.w3.org/1999/xlink" width="480pt" height="89.1605pt" viewBox="0 0 480 89.1605" version="1.1">
<g id="surface1">
<path style=" stroke:none;fill-rule:nonzero;fill:gray;fill-opacity:1;" d="M 186.171875 83.691406 C 177.742188 83.691406 171.480469 80.863281 167.390625 75.203125 C 163.355469 69.484375 161.339844 61.449219 161.339844 51.09375 C 161.339844 40.742188 163.355469 32.734375 167.390625 27.078125 C 171.480469 21.355469 177.742188 18.5 186.171875 18.5 C 189.421875 18.5 192.28125 18.949219 194.75 19.851562 C 197.277344 20.695312 199.445312 21.898438 201.25 23.464844 C 203.054688 25.027344 204.53125 26.925781 205.675781 29.152344 C 206.878906 31.378906 207.808594 33.878906 208.472656 36.648438 L 195.832031 39.71875 C 195.472656 38.210938 195.050781 36.828125 194.570312 35.5625 C 194.085938 34.300781 193.453125 33.214844 192.671875 32.3125 C 191.949219 31.410156 191.015625 30.71875 189.875 30.238281 C 188.789062 29.695312 187.464844 29.425781 185.898438 29.425781 C 182.226562 29.425781 179.609375 30.867188 178.042969 33.757812 C 176.539062 36.585938 175.785156 40.53125 175.785156 45.585938 L 175.785156 56.601562 C 175.785156 61.660156 176.539062 65.632812 178.042969 68.523438 C 179.609375 71.351562 182.226562 72.765625 185.898438 72.765625 C 189.027344 72.765625 191.285156 71.800781 192.671875 69.875 C 194.117188 67.949219 195.167969 65.480469 195.832031 62.472656 L 208.472656 65.542969 C 207.808594 68.308594 206.878906 70.808594 205.675781 73.039062 C 204.53125 75.261719 203.054688 77.191406 201.25 78.816406 C 199.445312 80.378906 197.277344 81.582031 194.75 82.429688 C 192.28125 83.269531 189.421875 83.691406 186.171875 83.691406 Z M 217.648438 15.789062 L 231.011719 15.789062 L 231.011719 44.503906 L 231.554688 44.503906 C 232.09375 43.179688 232.757812 41.945312 233.539062 40.800781 C 234.324219 39.65625 235.257812 38.664062 236.339844 37.820312 C 237.484375 36.917969 238.777344 36.226562 240.222656 35.746094 C 241.726562 35.203125 243.410156 34.933594 245.277344 34.933594 C 247.507812 34.933594 249.550781 35.324219 251.417969 36.105469 C 253.285156 36.828125 254.878906 37.941406 256.203125 39.445312 C 257.53125 40.949219 258.550781 42.789062 259.273438 44.953125 C 260.058594 47.121094 260.449219 49.617188 260.449219 52.449219 L 260.449219 82.609375 L 247.085938 82.609375 L 247.085938 54.253906 C 247.085938 48.234375 244.464844 45.226562 239.230469 45.226562 C 238.207031 45.226562 237.179688 45.375 236.160156 45.675781 C 235.195312 45.917969 234.324219 46.339844 233.539062 46.941406 C 232.757812 47.484375 232.125 48.175781 231.644531 49.019531 C 231.222656 49.859375 231.011719 50.855469 231.011719 52 L 231.011719 82.609375 L 217.648438 82.609375 Z M 272.601562 72.222656 L 283.347656 72.222656 L 283.347656 46.398438 L 272.601562 46.398438 L 272.601562 36.015625 L 296.710938 36.015625 L 296.710938 49.199219 L 297.34375 49.199219 C 297.765625 47.511719 298.335938 45.886719 299.058594 44.324219 C 299.84375 42.699219 300.808594 41.28125 301.949219 40.078125 C 303.15625 38.816406 304.597656 37.820312 306.285156 37.097656 C 307.96875 36.375 309.957031 36.015625 312.242188 36.015625 L 316.667969 36.015625 L 316.667969 48.296875 L 306.734375 48.296875 C 303.425781 48.296875 300.925781 49.289062 299.238281 51.277344 C 297.554688 53.203125 296.710938 55.578125 296.710938 58.410156 L 296.710938 72.222656 L 312.0625 72.222656 L 312.0625 82.609375 L 272.601562 82.609375 Z M 347.152344 83.691406 C 343.542969 83.691406 340.292969 83.148438 337.402344 82.066406 C 334.511719 80.921875 332.042969 79.296875 329.996094 77.191406 C 328.011719 75.082031 326.476562 72.523438 325.390625 69.515625 C 324.308594 66.503906 323.765625 63.105469 323.765625 59.3125 C 323.765625 55.519531 324.308594 52.117188 325.390625 49.109375 C 326.476562 46.097656 328.011719 43.539062 329.996094 41.433594 C 332.042969 39.324219 334.511719 37.730469 337.402344 36.648438 C 340.292969 35.503906 343.542969 34.933594 347.152344 34.933594 C 350.765625 34.933594 354.015625 35.503906 356.90625 36.648438 C 359.796875 37.730469 362.234375 39.324219 364.21875 41.433594 C 366.265625 43.539062 367.832031 46.097656 368.914062 49.109375 C 370 52.117188 370.539062 55.519531 370.539062 59.3125 C 370.539062 63.105469 370 66.503906 368.914062 69.515625 C 367.832031 72.523438 366.265625 75.082031 364.21875 77.191406 C 362.234375 79.296875 359.796875 80.921875 356.90625 82.066406 C 354.015625 83.148438 350.765625 83.691406 347.152344 83.691406 Z M 347.152344 73.757812 C 350.164062 73.757812 352.511719 72.824219 354.195312 70.960938 C 355.882812 69.09375 356.726562 66.445312 356.726562 63.015625 L 356.726562 55.609375 C 356.726562 52.179688 355.882812 49.527344 354.195312 47.664062 C 352.511719 45.796875 350.164062 44.863281 347.152344 44.863281 C 344.144531 44.863281 341.796875 45.796875 340.109375 47.664062 C 338.425781 49.527344 337.582031 52.179688 337.582031 55.609375 L 337.582031 63.015625 C 337.582031 66.445312 338.425781 69.09375 340.109375 70.960938 C 341.796875 72.824219 344.144531 73.757812 347.152344 73.757812 Z M 376.914062 82.609375 L 376.914062 36.015625 L 387.660156 36.015625 L 387.660156 42.878906 L 388.292969 42.878906 C 389.015625 40.710938 390.039062 38.84375 391.363281 37.28125 C 392.75 35.714844 394.675781 34.933594 397.140625 34.933594 C 401.65625 34.933594 404.425781 37.578125 405.449219 42.878906 L 405.992188 42.878906 C 406.351562 41.792969 406.804688 40.769531 407.34375 39.808594 C 407.886719 38.84375 408.550781 38.003906 409.332031 37.28125 C 410.113281 36.558594 411.046875 35.984375 412.132812 35.5625 C 413.214844 35.140625 414.480469 34.933594 415.921875 34.933594 C 422.425781 34.933594 425.675781 39.71875 425.675781 49.289062 L 425.675781 82.609375 L 414.929688 82.609375 L 414.929688 50.644531 C 414.929688 48.476562 414.539062 46.972656 413.757812 46.128906 C 413.035156 45.226562 412.070312 44.773438 410.867188 44.773438 C 409.722656 44.773438 408.730469 45.164062 407.886719 45.949219 C 407.105469 46.671875 406.714844 47.8125 406.714844 49.378906 L 406.714844 82.609375 L 395.878906 82.609375 L 395.878906 50.644531 C 395.878906 48.476562 395.515625 46.972656 394.792969 46.128906 C 394.132812 45.226562 393.199219 44.773438 391.996094 44.773438 C 390.792969 44.773438 389.769531 45.164062 388.925781 45.949219 C 388.082031 46.671875 387.660156 47.8125 387.660156 49.378906 L 387.660156 82.609375 Z M 472.324219 82.609375 C 469.554688 82.609375 467.328125 81.914062 465.644531 80.53125 C 463.957031 79.085938 462.964844 77.039062 462.664062 74.390625 L 462.210938 74.390625 C 461.367188 77.460938 459.683594 79.777344 457.15625 81.34375 C 454.683594 82.910156 451.648438 83.691406 448.035156 83.691406 C 443.519531 83.691406 439.875 82.488281 437.109375 80.082031 C 434.398438 77.609375 433.046875 74.179688 433.046875 69.785156 C 433.046875 64.910156 434.820312 61.296875 438.375 58.949219 C 441.925781 56.601562 447.132812 55.429688 453.996094 55.429688 L 461.488281 55.429688 L 461.488281 53.082031 C 461.488281 50.3125 460.824219 48.234375 459.503906 46.851562 C 458.238281 45.40625 456.070312 44.683594 453 44.683594 C 450.171875 44.683594 447.882812 45.226562 446.140625 46.308594 C 444.390625 47.394531 442.886719 48.804688 441.625 50.554688 L 434.308594 44.050781 C 435.875 41.402344 438.3125 39.234375 441.625 37.550781 C 444.996094 35.804688 449.300781 34.933594 454.535156 34.933594 C 460.914062 34.933594 465.882812 36.40625 469.433594 39.355469 C 473.046875 42.246094 474.851562 46.640625 474.851562 52.539062 L 474.851562 72.945312 L 480 72.945312 L 480 82.609375 Z M 453.089844 74.933594 C 455.4375 74.933594 457.425781 74.359375 459.050781 73.21875 C 460.675781 72.074219 461.488281 70.417969 461.488281 68.25 L 461.488281 62.652344 L 454.355469 62.652344 C 448.878906 62.652344 446.140625 64.488281 446.140625 68.160156 L 446.140625 69.96875 C 446.140625 71.59375 446.769531 72.824219 448.035156 73.667969 C 449.300781 74.511719 450.984375 74.933594 453.089844 74.933594 Z M 453.089844 74.933594 "/>
<path style=" stroke:none;fill-rule:nonzero;fill:rgb(46%,46%,46%);fill-opacity:1;" d="M 0 44.582031 C 0 19.960938 19.960938 0 44.582031 0 C 69.203125 0 89.160156 19.960938 89.160156 44.582031 C 89.160156 69.203125 69.203125 89.160156 44.582031 89.160156 C 19.960938 89.160156 0 69.203125 0 44.582031 Z M 0 44.582031 "/>
<path style=" stroke:none;fill-rule:nonzero;fill:rgb(83%,83%,83%);fill-opacity:1;" d="M 44.578125 44.582031 C 44.578125 19.960938 64.539062 0 89.160156 0 C 113.78125 0 133.738281 19.960938 133.738281 44.582031 C 133.738281 69.203125 113.78125 89.160156 89.160156 89.160156 C 64.539062 89.160156 44.578125 69.203125 44.578125 44.582031 Z M 44.578125 44.582031 "/>
<path style=" stroke:none;fill-rule:nonzero;fill:rgb(56%,56%,56%);fill-opacity:1;" d="M 44.582031 44.582031 C 44.582031 19.960938 64.539062 0 89.160156 0 L 89.160156 44.582031 Z M 44.582031 44.582031 "/>
<path style=" stroke:none;fill-rule:nonzero;fill:rgb(56%,56%,56%);fill-opacity:1;" d="M 89.160156 44.582031 C 89.160156 69.203125 69.199219 89.160156 44.578125 89.160156 L 44.578125 44.582031 Z M 89.160156 44.582031 "/>
</g>
</svg>
