<svg version="1.1" id="Layer_1" xmlns="http://www.w3.org/2000/svg" xmlns:xlink="http://www.w3.org/1999/xlink" x="0px" y="0px"
	 width="100%" viewBox="0 0 921 201" enable-background="new 0 0 921 201" xml:space="preserve">
<path fill="gray" opacity="1.000000" stroke="none" 
	d="
M1.000000,47.468658 
	C4.139483,47.000000 7.278965,47.000000 10.904440,47.000000 
	C10.904440,43.645939 10.904440,40.566692 10.904440,37.256424 
	C55.774338,37.256424 100.155289,37.256424 144.767670,37.256424 
	C144.767670,81.715263 144.767670,125.974075 144.767670,170.731506 
	C141.795883,170.731506 138.729935,170.731506 135.180847,170.731506 
	C135.180847,174.277283 135.180847,177.347855 135.180847,181.000534 
	C90.442459,181.000534 46.189888,181.000534 1.468657,181.000275 
	C1.000000,136.645767 1.000000,92.291542 1.000000,47.468658 
M76.530083,64.974030 
	C76.276093,66.494545 75.511139,68.141350 75.850708,69.515152 
	C78.121376,78.701492 80.496880,87.868324 83.184128,96.939041 
	C83.638336,98.472214 85.562698,100.193420 87.152016,100.663132 
	C95.907455,103.250839 104.751442,105.549103 113.602791,107.798141 
	C118.411255,109.019920 119.987511,107.486122 118.819992,102.735565 
	C117.393105,96.929649 115.791039,91.163673 114.135529,85.417633 
	C109.682137,69.960541 113.817749,73.885788 98.347351,69.603539 
	C91.365967,67.671082 84.245338,66.241615 76.530083,64.974030 
M62.184025,81.479439 
	C58.616844,81.263176 57.882484,83.115952 58.701996,86.178825 
	C61.151207,95.332634 63.451527,104.529709 66.130836,113.615280 
	C66.598465,115.200974 68.400330,117.075119 69.966057,117.542358 
	C78.883636,120.203506 87.881927,122.626503 96.943703,124.740753 
	C98.475151,125.098068 100.448898,123.559662 102.218300,122.897125 
	C100.991188,121.623451 99.984352,119.697098 98.496819,119.195061 
	C93.467491,117.497681 88.342422,115.701103 83.116402,115.055016 
	C74.251289,113.959030 70.087212,109.404610 68.684067,100.652382 
	C67.654907,94.232910 64.850098,88.098106 62.184025,81.479439 
M67.065941,77.384224 
	C69.463593,86.379532 71.675598,95.431824 74.405159,104.325264 
	C74.998062,106.257072 77.172935,108.496796 79.087158,109.093559 
	C87.808525,111.812485 96.662468,114.142281 105.558205,116.230957 
	C107.084023,116.589211 109.043953,115.098518 110.803345,114.461937 
	C109.563713,113.215302 108.534172,111.302170 107.049141,110.834076 
	C99.447037,108.437851 91.770348,106.238434 84.026993,104.350632 
	C81.124565,103.643044 79.936241,102.143570 79.253189,99.487267 
	C77.266396,91.760841 75.236038,84.040169 72.923073,76.408066 
	C72.505798,75.031158 70.665184,74.085602 69.481689,72.940903 
	C68.637291,74.146545 67.792892,75.352188 67.065941,77.384224 
M42.559746,143.060410 
	C48.546799,137.040558 54.619671,131.101379 60.432499,124.917755 
	C61.351509,123.940109 61.096443,121.858788 61.384209,120.287750 
	C59.919552,120.655937 57.999088,120.554855 57.061436,121.465607 
	C48.583385,129.700378 40.217010,138.053955 32.005932,146.554337 
	C31.096119,147.496201 31.360319,149.572113 31.080034,151.122086 
	C32.501408,150.836685 34.272419,150.986023 35.274883,150.179764 
	C37.725643,148.208679 39.821083,145.795807 42.559746,143.060410 
M40.391041,127.114967 
	C45.552139,121.958344 50.804714,116.887543 55.794212,111.569901 
	C56.748295,110.553062 56.665466,108.563309 57.061024,107.022415 
	C55.540813,107.309593 53.533527,107.077034 52.580883,107.969826 
	C47.139488,113.069382 41.877350,118.368591 36.738804,123.775314 
	C35.799381,124.763763 35.710556,126.560623 35.229092,127.984322 
	C36.778370,127.876274 38.327652,127.768219 40.391041,127.114967 
M62.487434,133.987900 
	C59.787006,136.685303 56.929893,139.250183 54.474014,142.154388 
	C53.651741,143.126755 53.853313,144.964905 53.586891,146.407318 
	C55.022217,146.185196 56.944695,146.478607 57.813862,145.657318 
	C63.480785,140.302582 68.996307,134.778824 74.348511,129.109406 
	C75.141785,128.269119 74.811401,126.368034 75.000877,124.957718 
	C73.579742,125.220718 71.774918,125.025513 70.810074,125.833427 
	C68.021446,128.168488 65.570946,130.907333 62.487434,133.987900 
z"/>
<path fill="gray" opacity="1.000000" stroke="none" 
	d="
M894.159058,160.370941 
	C888.049561,161.424545 882.250671,162.795059 876.430786,162.891495 
	C858.477539,163.188934 840.516296,163.000015 822.280151,163.000015 
	C822.280151,122.929657 822.280151,83.218445 822.280151,43.000038 
	C827.845337,43.000038 833.293030,43.000057 838.740784,43.000038 
	C852.067871,42.999996 865.418762,42.505920 878.714844,43.147850 
	C890.483154,43.716019 900.945679,47.797092 907.333923,58.776150 
	C915.997742,73.666206 910.419006,95.012917 891.311218,99.461029 
	C895.619385,101.518089 899.953979,103.425308 904.138367,105.619255 
	C913.151672,110.345108 917.314087,125.150139 915.797241,134.488464 
	C913.720154,147.275879 906.507446,155.676895 894.159058,160.370941 
M877.966370,140.960449 
	C880.715027,139.100174 883.895264,137.650894 886.131775,135.302795 
	C892.922974,128.172623 887.578064,112.762878 874.232971,111.191818 
	C866.073975,110.231300 857.709717,111.014374 849.267029,111.014374 
	C849.267029,121.522491 849.267029,131.568771 849.267029,142.450974 
	C858.750366,141.955170 867.938049,141.474838 877.966370,140.960449 
M859.502075,92.999695 
	C864.228638,92.657333 869.032471,92.730499 873.662720,91.869865 
	C879.770569,90.734581 884.573425,84.725922 884.996460,78.720955 
	C885.415039,72.779633 881.750854,66.503471 875.154053,65.334793 
	C866.707092,63.838329 857.955383,64.061241 849.316956,63.542168 
	C849.316956,73.993118 849.316956,83.356995 849.316956,92.999702 
	C852.592407,92.999702 855.557495,92.999702 859.502075,92.999695 
z"/>
<path fill="gray" opacity="1.000000" stroke="none" 
	d="
M785.993408,150.001129 
	C776.170471,158.735489 764.711609,162.611176 752.180664,162.905258 
	C735.705627,163.291885 719.214722,163.000214 702.365601,163.000214 
	C702.365601,123.098869 702.365601,83.383194 702.365601,43.208172 
	C703.825256,43.142929 705.423401,43.011284 707.021606,43.009480 
	C721.350159,42.993290 735.679810,42.886387 750.007019,43.024284 
	C777.057007,43.284637 798.396118,59.663696 803.036926,87.484711 
	C806.191101,106.393669 804.875488,124.509636 793.946289,140.945068 
	C791.787659,144.191208 788.902588,146.954254 785.993408,150.001129 
M777.999573,105.439796 
	C777.999634,102.110023 778.330078,98.740967 777.939636,95.457634 
	C776.603577,84.223526 773.286560,73.848038 762.054016,68.648102 
	C751.586182,63.802189 740.352722,64.862518 729.353882,65.182907 
	C729.353882,90.712288 729.353882,115.751953 729.353882,140.998734 
	C735.519470,140.998734 741.421997,141.628281 747.122070,140.823715 
	C752.957214,140.000061 759.204285,138.826874 764.193359,135.942612 
	C775.278381,129.534195 777.856750,118.357849 777.999573,105.439796 
z"/>
<path fill="gray" opacity="1.000000" stroke="none" 
	d="
M646.938843,165.000244 
	C637.633850,165.570389 629.149963,164.164764 621.412659,159.833374 
	C611.404663,154.230835 604.673340,145.927505 601.905518,134.617264 
	C598.588074,121.061035 598.549133,107.675568 604.663269,94.858261 
	C611.290039,80.966202 622.469116,73.640396 637.837280,71.880226 
	C649.686218,70.523132 660.296387,72.686661 670.103943,79.506279 
	C680.123840,86.473457 684.184448,96.667206 685.926819,108.065536 
	C686.743225,113.406296 686.785034,118.865456 687.221802,124.875153 
	C666.286987,124.875153 645.742859,124.875153 625.042480,124.875153 
	C626.178894,135.974258 630.438416,143.548553 641.919617,145.582123 
	C647.467102,146.564713 658.561401,143.843292 661.065552,137.721909 
	C662.084045,135.232346 663.407288,134.994461 666.301636,135.485611 
	C672.574768,136.550140 679.049744,136.425522 685.420349,136.785950 
	C685.476196,150.280304 667.481323,166.040939 646.938843,165.000244 
M635.557800,107.998398 
	C644.318726,107.998398 653.079651,107.998398 661.855835,107.998398 
	C661.406372,98.550285 654.738159,91.841415 646.366882,90.922241 
	C635.161072,89.691811 625.996460,98.487625 625.595947,107.998398 
	C628.595520,107.998398 631.589783,107.998398 635.557800,107.998398 
z"/>
<path fill="gray" opacity="1.000000" stroke="none" 
	d="
M304.159241,131.664581 
	C307.664825,118.814842 316.830353,113.197021 328.627197,111.079102 
	C336.164215,109.725960 343.805420,108.926765 351.417694,108.029785 
	C355.432556,107.556686 359.081909,106.354134 359.802673,101.980217 
	C360.517090,97.644753 355.799011,91.600357 351.622498,91.068237 
	C343.320892,90.010536 335.674072,90.785400 331.148285,99.360535 
	C330.705750,100.199013 329.130371,100.995689 328.160004,100.910454 
	C321.170898,100.296585 314.202240,99.450043 307.222321,98.676758 
	C309.867493,82.069870 325.238770,73.217278 339.903412,71.795952 
	C350.296753,70.788605 360.119934,71.700760 369.314575,76.209602 
	C379.650452,81.278107 385.311462,89.548607 385.089478,101.696770 
	C384.748871,120.335785 384.999969,138.985596 384.999939,157.630829 
	C384.999939,159.255203 384.999939,160.879593 384.999939,162.749161 
	C376.859955,162.749161 369.137482,162.749161 361.104919,162.749161 
	C361.104919,159.257660 361.104919,155.988235 361.104919,153.557785 
	C356.273346,156.723984 351.698273,161.242737 346.234863,163.000763 
	C332.914032,167.287155 319.773254,166.482132 309.884216,155.050003 
	C306.822144,151.510147 305.478241,146.236771 304.155701,141.530029 
	C303.333008,138.602051 304.026489,135.248032 304.159241,131.664581 
M358.963562,135.966217 
	C359.415253,131.503952 359.866943,127.041695 360.328888,122.478043 
	C357.345978,123.091171 355.100494,123.483612 352.889984,124.020119 
	C346.459747,125.580772 339.972443,126.963448 333.645020,128.871857 
	C328.867584,130.312790 328.825653,134.581314 329.008759,138.665192 
	C329.178131,142.441879 331.473877,144.614044 334.755157,145.867844 
	C343.719025,149.292999 353.498199,145.542862 358.963562,135.966217 
z"/>
<path fill="gray" opacity="1.000000" stroke="none" 
	d="
M459.802307,100.500130 
	C454.463165,93.265213 448.365479,91.316872 440.434082,94.007927 
	C433.910156,96.221443 430.003754,102.242653 430.001617,110.115791 
	C429.997314,125.947815 430.000488,141.779846 430.000580,157.611862 
	C430.000610,159.239304 430.000580,160.866730 430.000580,162.744446 
	C421.324249,162.744446 413.050446,162.744446 404.387024,162.744446 
	C404.387024,133.136322 404.387024,103.412437 404.387024,73.343613 
	C412.281342,73.343613 420.340820,73.343613 428.776611,73.343613 
	C428.776611,77.566444 428.776611,81.826508 428.776611,87.330399 
	C433.753204,79.969612 438.816498,74.701187 446.719604,72.626335 
	C465.905701,67.589325 485.763519,77.620445 486.778412,98.664139 
	C487.800018,119.847420 487.003235,141.118393 487.003235,162.677948 
	C479.341125,162.677948 470.949371,162.677948 461.999786,162.677948 
	C461.999786,156.370987 461.999817,150.095337 461.999817,143.819702 
	C461.999817,132.987259 462.161652,122.151009 461.906677,111.324577 
	C461.824219,107.822456 460.647949,104.346100 459.802307,100.500130 
z"/>
<path fill="gray" opacity="1.000000" stroke="none" 
	d="
M587.970093,101.393616 
	C587.992554,103.330170 587.992554,104.826302 587.992554,106.995064 
	C580.613037,106.995064 573.348755,107.075012 566.090759,106.896614 
	C565.155090,106.873611 563.854431,105.702072 563.395081,104.741211 
	C557.804016,93.045601 555.224426,90.991074 545.345398,92.063812 
	C536.625061,93.010735 532.738220,99.296082 530.595093,106.913742 
	C527.648254,117.387901 528.410583,127.561256 534.048157,137.041916 
	C537.248596,142.424011 542.630371,145.049408 548.480103,144.627747 
	C555.657715,144.110336 561.320923,140.556976 563.131348,132.670090 
	C563.379944,131.587036 565.254517,130.161591 566.418274,130.121689 
	C573.387085,129.882843 580.368225,130.003296 587.847168,130.003296 
	C588.319092,137.542801 585.858093,143.968674 581.742615,149.645370 
	C573.870544,160.503769 562.760681,164.755188 549.575317,165.084534 
	C536.165955,165.419449 524.305786,162.220001 514.801819,152.295120 
	C507.643188,144.819351 504.061584,135.523285 503.165924,125.557312 
	C502.041229,113.043564 503.120453,100.619995 510.679993,89.788612 
	C517.868774,79.488419 527.449097,73.364372 540.213806,71.871727 
	C549.177368,70.823570 557.821167,71.384132 566.082397,74.669472 
	C577.995361,79.407028 585.209961,88.405304 587.970093,101.393616 
z"/>
<path fill="gray" opacity="1.000000" stroke="none" 
	d="
M216.285751,43.069607 
	C224.586548,43.017235 232.409744,43.017235 240.716309,43.017235 
	C240.716309,75.856438 240.716309,108.569550 240.716309,141.774979 
	C258.243195,141.774979 275.299683,141.774979 292.675873,141.774979 
	C292.675873,148.983170 292.675873,155.706055 292.675873,162.716980 
	C266.936157,162.716980 241.222977,162.716980 215.000244,162.716980 
	C215.000244,161.149887 215.000244,159.703094 215.000244,158.256317 
	C215.000244,121.446091 214.990280,84.635857 215.034409,47.825687 
	C215.036285,46.257477 215.538849,44.689869 216.285751,43.069607 
z"/>
<path fill="white" opacity="1.000000" stroke="none" 
	d="
M76.858986,64.778992 
	C84.245338,66.241615 91.365967,67.671082 98.347351,69.603539 
	C113.817749,73.885788 109.682137,69.960541 114.135529,85.417633 
	C115.791039,91.163673 117.393105,96.929649 118.819992,102.735565 
	C119.987511,107.486122 118.411255,109.019920 113.602791,107.798141 
	C104.751442,105.549103 95.907455,103.250839 87.152016,100.663132 
	C85.562698,100.193420 83.638336,98.472214 83.184128,96.939041 
	C80.496880,87.868324 78.121376,78.701492 75.850708,69.515152 
	C75.511139,68.141350 76.276093,66.494545 76.858986,64.778992 
M91.508881,73.978188 
	C88.845772,73.291779 86.182655,72.605377 82.572281,71.674820 
	C84.713387,79.546318 86.578842,86.527977 88.558151,93.477196 
	C88.742577,94.124695 89.562263,94.866486 90.231934,95.058197 
	C97.301750,97.082092 104.401024,99.003082 112.077293,101.113312 
	C111.074883,97.314873 109.891640,94.478966 109.634293,91.561378 
	C108.687157,80.823708 103.224709,74.838646 91.508881,73.978188 
z"/>
<path fill="white" opacity="1.000000" stroke="none" 
	d="
M62.510345,81.657928 
	C64.850098,88.098106 67.654907,94.232910 68.684067,100.652382 
	C70.087212,109.404610 74.251289,113.959030 83.116402,115.055016 
	C88.342422,115.701103 93.467491,117.497681 98.496819,119.195061 
	C99.984352,119.697098 100.991188,121.623451 102.218300,122.897125 
	C100.448898,123.559662 98.475151,125.098068 96.943703,124.740753 
	C87.881927,122.626503 78.883636,120.203506 69.966057,117.542358 
	C68.400330,117.075119 66.598465,115.200974 66.130836,113.615280 
	C63.451527,104.529709 61.151207,95.332634 58.701996,86.178825 
	C57.882484,83.115952 58.616844,81.263176 62.510345,81.657928 
z"/>
<path fill="white" opacity="1.000000" stroke="none" 
	d="
M67.007217,76.971024 
	C67.792892,75.352188 68.637291,74.146545 69.481689,72.940903 
	C70.665184,74.085602 72.505798,75.031158 72.923073,76.408066 
	C75.236038,84.040169 77.266396,91.760841 79.253189,99.487267 
	C79.936241,102.143570 81.124565,103.643044 84.026993,104.350632 
	C91.770348,106.238434 99.447037,108.437851 107.049141,110.834076 
	C108.534172,111.302170 109.563713,113.215302 110.803345,114.461945 
	C109.043953,115.098518 107.084023,116.589211 105.558205,116.230957 
	C96.662468,114.142281 87.808525,111.812485 79.087158,109.093559 
	C77.172935,108.496796 74.998062,106.257072 74.405159,104.325264 
	C71.675598,95.431824 69.463593,86.379532 67.007217,76.971024 
z"/>
<path fill="#FBFBFF" opacity="1.000000" stroke="none" 
	d="
M42.309647,143.310577 
	C39.821083,145.795807 37.725643,148.208679 35.274883,150.179764 
	C34.272419,150.986023 32.501408,150.836685 31.080034,151.122086 
	C31.360319,149.572113 31.096119,147.496201 32.005932,146.554337 
	C40.217010,138.053955 48.583385,129.700378 57.061436,121.465607 
	C57.999088,120.554855 59.919552,120.655937 61.384209,120.287750 
	C61.096443,121.858788 61.351509,123.940109 60.432499,124.917755 
	C54.619671,131.101379 48.546799,137.040558 42.309647,143.310577 
z"/>
<path fill="white" opacity="1.000000" stroke="none" 
	d="
M40.133987,127.387573 
	C38.327652,127.768219 36.778370,127.876274 35.229088,127.984322 
	C35.710556,126.560623 35.799381,124.763763 36.738804,123.775314 
	C41.877350,118.368591 47.139488,113.069382 52.580883,107.969826 
	C53.533527,107.077034 55.540813,107.309593 57.061028,107.022415 
	C56.665466,108.563309 56.748295,110.553062 55.794212,111.569901 
	C50.804714,116.887543 45.552139,121.958344 40.133987,127.387573 
z"/>
<path fill="white" opacity="1.000000" stroke="none" 
	d="
M62.737564,133.737778 
	C65.570946,130.907333 68.021446,128.168488 70.810074,125.833427 
	C71.774918,125.025513 73.579742,125.220718 75.000877,124.957718 
	C74.811401,126.368034 75.141785,128.269119 74.348511,129.109406 
	C68.996307,134.778824 63.480785,140.302582 57.813862,145.657318 
	C56.944695,146.478607 55.022217,146.185196 53.586891,146.407318 
	C53.853313,144.964905 53.651741,143.126755 54.474014,142.154388 
	C56.929893,139.250183 59.787006,136.685303 62.737564,133.737778 
z"/>

<path fill="gray" opacity="1.000000" stroke="none" 
	d="
M91.906250,74.068985 
	C103.224709,74.838646 108.687157,80.823708 109.634293,91.561378 
	C109.891640,94.478966 111.074883,97.314873 112.077293,101.113312 
	C104.401024,99.003082 97.301750,97.082092 90.231934,95.058197 
	C89.562263,94.866486 88.742577,94.124695 88.558151,93.477196 
	C86.578842,86.527977 84.713387,79.546318 82.572281,71.674820 
	C86.182655,72.605377 88.845772,73.291779 91.906250,74.068985 
z"/>
</svg>