<svg version="1.1" id="Layer_1" xmlns="http://www.w3.org/2000/svg" xmlns:xlink="http://www.w3.org/1999/xlink" x="0px" y="0px" enable-background="new 0 0 896 336" xml:space="preserve" viewBox="266.98 105.55 380.47 85.2"> <path fill="gray" opacity="1.000000" stroke="none" d=" M422.068787,189.390717  	C411.283905,189.297562 411.842529,190.584122 411.833435,179.797211  	C411.821198,165.305603 411.756561,150.813416 411.880188,136.322906  	C411.903290,133.617325 410.476562,129.973618 414.889343,128.943451  	C420.711517,127.584244 424.352448,129.019714 426.492188,133.772278  	C431.398956,129.715805 436.894196,127.392609 443.343933,127.859131  	C449.856018,128.330170 454.392059,131.881012 458.000641,137.548080  	C462.134979,132.836578 466.452301,129.228134 472.580597,128.165405  	C485.024048,126.007538 494.942200,132.973358 496.342743,145.494736  	C497.809509,158.608063 496.616119,171.780151 496.848602,184.923492  	C496.902191,187.952423 495.557190,189.612549 492.309082,189.382080  	C490.817566,189.276260 489.302856,189.259216 487.814880,189.388687  	C484.092010,189.712646 482.806000,187.951172 482.841736,184.379822  	C482.948456,173.720459 482.897034,163.059250 482.867035,152.398865  	C482.843811,144.149689 479.399109,139.772171 472.798218,139.493393  	C466.095093,139.210312 461.268250,144.390198 461.161224,152.334747  	C461.026581,162.327225 461.133087,172.322739 461.093658,182.316772  	C461.065979,189.326126 460.966919,189.395645 454.227936,189.378860  	C447.741608,189.362701 447.727814,189.362747 447.706055,182.578949  	C447.674011,172.584808 447.693390,162.590424 447.635468,152.596451  	C447.587616,144.343689 443.722595,139.560242 437.124603,139.454971  	C430.823151,139.354431 425.750275,144.898468 425.574493,152.645172  	C425.332703,163.299622 425.442596,173.961746 425.347504,184.620102  	C425.329010,186.695068 425.838318,189.236801 422.068787,189.390717  z"></path> <path fill="gray" opacity="1.000000" stroke="none" d=" M617.608398,152.609100  	C621.649109,148.615723 625.388489,144.833527 628.545471,140.510834  	C632.428345,135.194153 633.323120,129.344971 630.347778,123.589035  	C627.931030,118.913689 623.151855,117.216515 618.025696,117.536659  	C611.349182,117.953644 606.348206,121.044876 603.913147,127.614403  	C602.383850,131.740494 595.013367,134.218872 591.317261,131.899963  	C589.584595,130.812912 589.750916,129.062180 589.981323,127.427429  	C590.601868,123.025024 592.542542,119.169724 595.352417,115.787064  	C604.577576,104.681412 624.067078,102.155602 635.891846,110.478317  	C646.872253,118.206741 649.412598,131.175156 642.232849,142.531281  	C636.464233,151.655441 628.201416,158.504654 620.778076,166.109772  	C617.437317,169.532333 613.702332,172.570190 610.077271,175.844879  	C612.617371,178.424759 614.713074,177.589081 616.563904,177.608215  	C624.718811,177.692505 632.881409,177.805618 641.028564,177.530975  	C645.163574,177.391586 647.717590,177.824448 647.419678,182.986237  	C647.066162,189.110886 647.155823,189.380936 640.903320,189.391083  	C626.422119,189.414597 611.940308,189.470154 597.460388,189.334442  	C595.038147,189.311752 591.562256,190.789261 590.471863,187.336746  	C589.401062,183.946487 589.886597,180.459351 592.719666,177.647659  	C599.571289,170.847763 606.338257,163.962570 613.139648,157.112076  	C614.546509,155.695068 615.954590,154.279282 617.608398,152.609100  z"></path> <path fill="gray" opacity="1.000000" stroke="none" d=" M556.330688,149.152695  	C556.328430,160.621994 556.383728,171.612885 556.280090,182.602264  	C556.252869,185.490921 557.550964,189.176147 552.273560,189.429306  	C543.882568,189.831818 543.259033,189.655029 542.312988,182.985977  	C536.412598,188.462997 529.866272,191.257538 521.927734,190.375137  	C512.697083,189.349106 505.729095,183.047394 504.782745,174.323257  	C503.799316,165.257324 508.831757,158.511368 518.280212,155.466339  	C524.265503,153.537445 530.462158,153.883743 536.525452,152.941925  	C538.667664,152.609192 541.666504,153.810333 542.456909,150.681473  	C543.228455,147.627274 542.265137,144.660782 540.009338,142.413269  	C535.004639,137.427063 525.058838,138.534943 521.064575,144.416870  	C518.866882,147.653244 511.978394,149.439423 508.763245,147.609070  	C506.579437,146.365845 507.250763,144.509705 507.813843,142.776093  	C510.808533,133.556320 517.922058,129.544540 526.854309,128.059036  	C539.188660,126.007736 550.383484,130.898575 554.677002,139.934952  	C556.008850,142.738083 556.373047,145.648819 556.330688,149.152695  M518.551575,170.782028  	C518.405457,173.417938 519.022827,175.927231 521.305359,177.335464  	C525.914795,180.179291 530.791016,179.775421 535.580688,177.666595  	C540.153137,175.653381 542.181519,171.856796 542.651245,167.079361  	C542.881042,164.742279 542.144348,163.186584 539.423645,163.247543  	C534.282349,163.362762 529.157898,163.686996 524.144470,164.877533  	C521.405884,165.527847 519.336121,167.089661 518.551575,170.782028  z"></path> <path fill="gray" opacity="1.000000" stroke="none" d=" M378.305023,153.140930  	C379.590088,153.051407 380.444916,153.118530 381.248505,152.946381  	C383.476318,152.469162 386.783478,154.134689 387.545837,150.612671  	C388.280518,147.218369 387.429291,143.970947 384.460815,141.662125  	C379.123077,137.510544 369.991547,138.897934 366.208099,144.427658  	C363.944611,147.735794 357.329773,149.430069 353.923401,147.643433  	C351.922668,146.594040 352.260406,144.961594 352.737000,143.331558  	C354.819427,136.209778 359.577484,131.656433 366.535980,129.400803  	C371.840485,127.681313 377.321747,127.241989 382.822144,128.146851  	C395.269196,130.194489 401.349731,137.425323 401.371277,150.102814  	C401.389648,160.926682 401.400665,171.751572 401.262024,182.574036  	C401.225311,185.439346 402.548767,189.159302 397.268280,189.428635  	C389.041687,189.848251 388.547577,189.746094 387.282135,183.540024  	C385.527893,183.521393 384.876007,185.124023 383.762421,185.994858  	C371.639954,195.475204 353.203094,190.048828 350.260834,176.107758  	C348.376984,167.181717 352.705383,159.505554 361.211609,156.189316  	C366.595520,154.090347 372.242554,153.834091 378.305023,153.140930  M380.933075,177.646713  	C385.255066,175.376358 387.670013,171.884140 387.773926,166.927032  	C387.810913,165.162201 387.598328,163.417526 385.331055,163.340500  	C379.513641,163.142929 373.684570,163.346985 368.165375,165.353470  	C365.142883,166.452301 363.290039,168.956696 363.561554,172.318604  	C363.828186,175.619415 365.885925,177.679993 369.046326,178.679855  	C372.881714,179.893280 376.575378,179.319290 380.933075,177.646713  z"></path> <path fill="gray" opacity="1.000000" stroke="none" d=" M296.999817,189.395386  	C288.344360,189.392654 280.186737,189.280090 272.034271,189.436798  	C268.380219,189.507034 266.987518,188.077103 266.998596,184.454880  	C267.071869,160.487900 266.998322,136.520508 267.062469,112.553467  	C267.076874,107.170715 267.805450,106.904549 274.961823,106.799767  	C279.054932,106.739838 281.447968,107.416222 281.386047,112.475983  	C281.147827,131.946411 281.443115,151.423416 281.199554,170.893707  	C281.138153,175.802078 282.771515,177.203018 287.508331,177.034363  	C296.317719,176.720688 305.150238,177.117752 313.967590,176.942230  	C319.177368,176.838516 319.244171,179.952759 319.306946,183.803162  	C319.370728,187.713943 318.317413,189.682281 313.973907,189.460648  	C308.495697,189.181122 302.992279,189.394516 296.999817,189.395386  z"></path> <path fill="gray" opacity="1.000000" stroke="none" d=" M341.200714,160.000076  	C341.181732,168.487320 340.972656,176.480316 341.213348,184.459732  	C341.368652,189.608749 338.228973,189.539352 334.692169,189.398010  	C331.330048,189.263626 327.724030,190.350784 327.547394,184.602966  	C326.826447,161.144882 327.157990,137.687668 327.179138,114.230637  	C327.185211,107.500397 333.222961,104.175613 339.233582,107.331421  	C341.704987,108.629013 341.175232,110.995178 341.180939,113.073959  	C341.223450,128.549225 341.202393,144.024673 341.200714,160.000076  z"></path>   </svg>