<svg xmlns="http://www.w3.org/2000/svg" xmlns:xlink="http://www.w3.org/1999/xlink" version="1.1" viewBox="-0.03 0 409.65 82.6"> <g id="surface1"> <path style=" stroke:none;fill-rule:nonzero;fill:gray;fill-opacity:1;" d="M 92.332031 18.625 L 113.523438 18.625 C 128.859375 18.625 132.746094 27.875 132.746094 35.410156 C 132.746094 42.949219 128.773438 52.195312 113.523438 52.195312 L 100.449219 52.195312 L 100.449219 78.636719 L 92.332031 78.636719 Z M 100.449219 25.757812 L 100.449219 45.066406 L 111.148438 45.066406 C 117.582031 45.066406 124.019531 43.558594 124.019531 35.410156 C 124.019531 27.265625 117.582031 25.757812 111.148438 25.757812 Z M 143.355469 18.335938 C 146.417969 18.339844 148.910156 20.804688 148.945312 23.867188 C 148.984375 26.929688 146.546875 29.453125 143.484375 29.523438 C 140.421875 29.597656 137.871094 27.195312 137.761719 24.132812 C 137.714844 22.617188 138.28125 21.148438 139.335938 20.054688 C 140.386719 18.964844 141.839844 18.34375 143.355469 18.335938 Z M 139.617188 38.457031 L 147.152344 38.457031 L 147.152344 78.636719 L 139.617188 78.636719 Z M 155.878906 38.457031 L 163.503906 38.457031 L 163.503906 44.660156 L 163.675781 44.660156 C 166.335938 39.917969 171.472656 37.113281 176.898438 37.441406 C 184.695312 37.441406 191.390625 42.109375 191.390625 52.777344 L 191.390625 78.636719 L 183.855469 78.636719 L 183.855469 54.921875 C 183.855469 47.355469 179.535156 44.574219 174.695312 44.574219 C 168.34375 44.574219 163.503906 48.632812 163.503906 57.964844 L 163.503906 78.636719 L 155.878906 78.636719 Z M 205.367188 61.359375 C 205.367188 68.375 211.886719 72.953125 218.933594 72.953125 C 223.351562 72.824219 227.445312 70.59375 229.949219 66.953125 L 235.746094 71.359375 C 231.535156 76.914062 224.847656 80.019531 217.890625 79.648438 C 205.421875 79.648438 197.546875 70.886719 197.230469 59.273438 L 197.21875 58.546875 C 196.996094 52.957031 199.085938 47.527344 202.996094 43.53125 C 206.910156 39.535156 212.296875 37.332031 217.890625 37.441406 C 232.035156 37.441406 237.457031 48.28125 237.457031 58.632812 L 237.457031 61.359375 Z M 229.484375 55.242188 C 229.3125 48.542969 225.570312 43.644531 217.890625 43.644531 C 211.320312 43.601562 205.851562 48.683594 205.421875 55.242188 Z M 272.070312 49.152344 C 269.589844 46.21875 265.910156 44.566406 262.070312 44.660156 C 253.777344 44.660156 249.515625 51.355469 249.515625 58.894531 C 249.308594 62.457031 250.585938 65.949219 253.046875 68.539062 C 255.507812 71.125 258.933594 72.578125 262.503906 72.546875 C 266.28125 72.675781 269.890625 71.007812 272.246094 68.054688 L 277.667969 73.417969 C 273.722656 77.59375 268.15625 79.847656 262.417969 79.59375 C 256.777344 79.875 251.277344 77.765625 247.273438 73.78125 C 243.273438 69.792969 241.140625 64.304688 241.398438 58.660156 C 241.144531 52.996094 243.269531 47.484375 247.265625 43.457031 C 251.257812 39.433594 256.75 37.261719 262.417969 37.46875 C 268.222656 37.324219 273.820312 39.628906 277.839844 43.820312 Z M 300.21875 37.441406 C 311.828125 37.632812 321.101562 47.164062 320.976562 58.773438 C 320.847656 70.382812 311.367188 79.710938 299.757812 79.648438 C 288.148438 79.585938 278.769531 70.15625 278.769531 58.546875 C 278.765625 52.886719 281.039062 47.464844 285.070312 43.496094 C 288.894531 39.738281 293.992188 37.582031 299.328125 37.445312 Z M 300.21875 72.546875 C 308.335938 72.546875 313.441406 66.75 313.441406 58.546875 C 313.441406 50.339844 308.335938 44.574219 300.21875 44.574219 C 292.101562 44.574219 286.972656 50.371094 286.972656 58.546875 C 286.972656 66.492188 291.796875 72.222656 299.550781 72.535156 Z M 327.761719 38.457031 L 335.386719 38.457031 L 335.386719 44.660156 C 338.054688 39.914062 343.199219 37.109375 348.632812 37.441406 C 356.433594 37.441406 363.128906 42.109375 363.128906 52.777344 L 363.128906 78.636719 L 355.503906 78.636719 L 355.503906 54.921875 C 355.503906 47.355469 351.183594 44.574219 346.371094 44.574219 C 339.996094 44.574219 335.183594 48.632812 335.183594 57.964844 L 335.183594 78.636719 L 327.761719 78.636719 Z M 377.335938 61.359375 C 377.335938 68.375 383.855469 72.953125 390.902344 72.953125 C 395.316406 72.8125 399.402344 70.585938 401.917969 66.953125 L 407.714844 71.359375 C 403.5 76.867188 396.839844 79.9375 389.914062 79.5625 C 377.476562 79.5625 369.574219 70.800781 369.253906 59.1875 L 369.246094 58.457031 C 369.019531 52.855469 371.121094 47.410156 375.054688 43.410156 C 378.984375 39.414062 384.398438 37.222656 390.003906 37.355469 C 404.179688 37.355469 409.601562 48.195312 409.601562 58.546875 L 409.601562 61.269531 Z M 401.394531 55.242188 C 401.222656 48.542969 397.511719 43.644531 389.800781 43.644531 C 383.222656 43.585938 377.75 48.679688 377.335938 55.242188 Z M 401.394531 55.242188 "/> <path style=" stroke:none;fill-rule:nonzero;fill:gray;fill-opacity:1;" d="M 31.222656 73.128906 C 33.832031 73.128906 35.949219 75.242188 35.949219 77.851562 C 35.949219 80.460938 33.832031 82.578125 31.222656 82.578125 C 28.613281 82.578125 26.496094 80.460938 26.496094 77.851562 C 26.496094 75.242188 28.613281 73.128906 31.222656 73.128906 Z M 57.4375 64.503906 L 62.109375 65.890625 L 58.402344 78.398438 C 58.078125 79.492188 57.039062 80.214844 55.902344 80.136719 L 54.757812 80.058594 L 54.726562 80.082031 L 42.832031 79.246094 L 43.164062 74.386719 L 51.15625 74.929688 L 45.921875 67.382812 L 49.925781 64.609375 L 55.164062 72.164062 Z M 6.613281 55.855469 L 11.472656 56.203125 L 10.902344 64.191406 L 18.4375 58.953125 L 21.21875 62.953125 L 13.675781 68.195312 L 21.375 70.464844 L 20 75.136719 L 7.429688 71.433594 C 6.332031 71.109375 5.605469 70.066406 5.6875 68.925781 Z M 37.980469 49.050781 L 46.75 59.636719 L 42.796875 62.910156 L 37.578125 56.613281 L 35.886719 66.296875 L 30.832031 65.414062 L 32.527344 55.714844 L 25.5 59.855469 L 22.898438 55.433594 L 34.703125 48.480469 C 35.789062 47.839844 37.179688 48.082031 37.980469 49.050781 Z M 62.511719 41.949219 L 66.894531 39.566406 L 73.273438 51.296875 C 73.832031 52.324219 73.601562 53.601562 72.71875 54.367188 L 71.816406 55.148438 L 62.605469 63.164062 L 59.332031 59.402344 L 65.527344 54.015625 L 56.300781 52.351562 L 57.1875 47.445312 L 66.40625 49.105469 Z M 10.859375 29.6875 L 14.160156 33.425781 L 8.050781 38.816406 L 17.292969 40.429688 L 16.4375 45.339844 L 7.183594 43.726562 L 11.15625 50.910156 L 6.792969 53.324219 L 0.3125 41.605469 C -0.253906 40.582031 -0.0351562 39.300781 0.84375 38.527344 Z M 42.097656 25.832031 L 50.835938 36.390625 L 46.882812 39.660156 L 41.667969 33.359375 L 39.976562 43.046875 L 34.921875 42.164062 L 36.609375 32.5 L 29.609375 36.601562 L 27.015625 32.175781 L 37.765625 25.875 L 37.777344 25.832031 L 37.824219 25.839844 L 38.824219 25.253906 C 39.910156 24.617188 41.296875 24.863281 42.097656 25.832031 Z M 53.359375 20.640625 L 55.269531 16.035156 L 67.632812 21.164062 C 68.710938 21.613281 69.335938 22.75 69.132812 23.898438 L 68.925781 25.042969 L 66.816406 37.050781 L 61.90625 36.1875 L 63.320312 28.148438 L 55.117188 32.683594 L 52.707031 28.316406 L 60.925781 23.78125 Z M 29.808594 11.566406 L 30.023438 16.546875 L 21.855469 16.894531 L 28.015625 23.933594 L 24.261719 27.21875 L 18.09375 20.167969 L 16.65625 28.214844 L 11.746094 27.339844 L 14.097656 14.1875 C 14.304688 13.039062 15.28125 12.183594 16.445312 12.132812 L 17.601562 12.082031 L 17.628906 12.0625 Z M 46.515625 0.941406 L 55.210938 11.566406 L 51.242188 14.816406 L 46.078125 8.507812 L 44.339844 18.183594 L 39.289062 17.277344 L 41.03125 7.578125 L 33.984375 11.699219 L 31.394531 7.269531 L 43.234375 0.351562 C 44.324219 -0.285156 45.714844 -0.0351562 46.515625 0.941406 Z M 46.515625 0.941406 "/> </g> </svg>