<svg version="1.1" id="Layer_1" xmlns="http://www.w3.org/2000/svg" xmlns:xlink="http://www.w3.org/1999/xlink" x="0px" y="0px" enable-background="new 0 0 820 276" xml:space="preserve" viewBox="1.03 1.08 819.78 275.92"> <path fill="gray" opacity="1.000000" stroke="none" d=" M476.092010,118.127518  	C476.560638,116.645248 476.937408,115.546242 477.311188,114.446220  	C479.956879,106.659653 482.914673,105.602348 490.364349,109.084320  	C494.372131,110.957542 494.742676,114.047012 493.632294,117.331520  	C488.001190,133.988510 482.181427,150.582489 476.315033,167.158646  	C474.881714,171.208633 471.600861,172.200699 467.499451,172.065506  	C463.625488,171.937805 461.868927,169.859131 460.771301,166.582916  	C458.241364,159.031525 455.667236,151.494888 453.086792,143.960571  	C452.780792,143.067169 452.323730,142.225525 451.367645,140.087021  	C448.841370,147.428131 446.705933,153.629700 444.573486,159.832306  	C443.872162,161.872253 443.235168,163.936356 442.469574,165.951736  	C441.017059,169.775375 439.027130,172.402588 434.105133,172.129868  	C429.366119,171.867294 427.317993,169.326065 425.983734,165.442963  	C421.994507,153.832809 418.020111,142.217545 414.022064,130.610413  	C412.564240,126.378136 410.909119,122.207817 409.609589,117.928574  	C408.101013,112.960976 410.091217,109.676811 415.200073,108.136383  	C421.116852,106.352356 423.150574,107.279190 425.068176,112.865013  	C428.122101,121.760895 431.093750,130.685043 434.592712,141.057343  	C437.691467,131.258606 440.362915,122.918732 442.958557,114.555344  	C444.167847,110.658966 446.529816,108.277687 450.752502,108.031364  	C455.586609,107.749367 458.611725,109.937576 460.043518,114.561897  	C462.633392,122.926674 465.310394,131.264481 468.412109,141.071198  	C471.270203,132.571945 473.634491,125.541130 476.092010,118.127518  z"></path> <path fill="#81B902" opacity="1.000000" stroke="none" d=" M347.935364,91.707863  	C348.291168,93.384781 348.953979,95.061226 348.956573,96.738678  	C348.993408,120.688103 348.771576,144.639099 348.977234,168.586594  	C349.090454,181.769882 342.157959,190.326767 331.857971,197.028564  	C330.222351,198.092819 328.466003,198.971512 326.220032,200.098160  	C325.427795,200.425690 325.239807,200.642166 325.110687,200.909760  	C325.110687,200.909760 325.065979,201.055313 324.737701,201.073364  	C323.993988,201.348831 323.578522,201.606262 323.163086,201.863693  	C323.163086,201.863693 323.086639,202.021118 322.599945,202.013733  	C313.480347,204.399353 304.786499,205.275711 295.665497,202.890228  	C293.200348,201.478012 291.020996,200.260590 288.878906,198.980804  	C281.609619,194.637878 274.353546,190.272903 266.995300,185.685455  	C266.776581,185.143570 266.654999,184.832596 266.594421,184.021225  	C266.595306,180.679642 266.535217,177.838440 266.561829,174.538895  	C266.603668,169.378143 266.558868,164.675766 266.592896,159.513947  	C266.653503,153.728302 266.635254,148.402100 266.700317,142.662430  	C266.911530,140.849518 267.039459,139.450043 267.458282,138.135544  	C268.675903,138.607819 269.602661,138.995117 270.785248,139.610992  	C278.038849,143.869781 285.036621,147.900009 292.279358,152.165710  	C304.570862,159.377029 316.460388,166.644775 328.714447,173.234756  	C338.217926,178.345520 347.679199,172.484085 347.882172,161.888809  	C347.951965,158.245300 347.805359,154.597626 347.786682,150.487488  	C347.800446,144.003647 347.785126,137.984161 347.805420,131.500122  	C347.823792,125.015205 347.806549,118.994858 347.827454,112.511414  	C347.846741,107.368774 347.827881,102.689232 347.846313,97.565201  	C347.900818,95.316429 347.918091,93.512146 347.935364,91.707863  z"></path> <path fill="#7CB901" opacity="1.000000" stroke="none" d=" M66.981659,199.103561  	C51.947830,192.194748 44.388008,180.833588 46.332783,163.476227  	C46.610046,162.976868 47.014408,162.920639 47.040611,163.312729  	C48.752991,173.184677 57.213398,178.016602 65.637688,173.499893  	C77.636345,167.066803 89.224289,159.867676 101.306946,152.856354  	C110.231400,148.031082 118.836586,143.345245 127.614319,139.043701  	C127.931122,139.970810 128.075363,140.513611 128.177643,141.500793  	C128.185440,144.624893 128.235245,147.304626 128.225861,150.412018  	C128.209290,152.558640 128.251907,154.277634 128.231201,156.449005  	C128.217010,159.959244 128.266174,163.017075 128.257019,166.535095  	C128.208755,173.004745 128.218826,179.014206 128.109711,185.242249  	C127.990524,185.460800 127.782677,185.913239 127.449944,186.003326  	C117.737053,191.715027 108.356895,197.336624 98.559357,203.003510  	C89.449013,202.719284 80.756050,202.389786 72.063095,202.060303  	C71.882637,202.003540 71.702171,201.946808 71.138245,201.643341  	C70.562477,201.214310 70.335510,201.102112 70.073891,201.059998  	C70.073891,201.059998 69.927986,201.062546 69.737671,200.814255  	C69.088913,200.410217 68.630463,200.254471 68.172012,200.098724  	C68.172012,200.098724 67.959579,200.056168 67.795044,199.799438  	C67.453636,199.338135 67.237350,199.191757 66.981659,199.103561  z"></path> <path fill="gray" opacity="1.000000" stroke="none" d=" M542.218506,140.567307  	C545.994202,132.326645 551.412537,125.944168 560.566040,126.273453  	C567.463623,126.521591 574.228516,127.370346 581.143494,126.105766  	C585.511963,125.306870 587.774231,128.363647 587.856995,132.280182  	C588.092590,143.425354 588.158020,154.584732 587.852112,165.726501  	C587.688477,171.685806 580.493286,174.377930 573.979065,171.250122  	C573.104309,170.830124 572.344849,170.170013 571.589600,169.660049  	C565.413879,173.712952 554.183838,172.398666 549.096497,167.684341  	C541.574768,160.714157 538.747131,150.918152 542.218506,140.567307  M560.701843,142.937958  	C560.214294,143.386612 559.687805,143.800049 559.245422,144.289566  	C556.048218,147.827698 556.183533,150.961700 559.647583,154.118744  	C562.785034,156.978134 566.425293,156.959137 568.968567,153.234909  	C570.175537,151.467545 570.481567,148.280640 569.794678,146.199188  	C568.537598,142.389893 565.279236,141.184250 560.701843,142.937958  z"></path> <path fill="gray" opacity="1.000000" stroke="none" d=" M692.525513,126.047523  	C696.700134,127.159645 699.854858,127.835258 704.358276,126.629906  	C712.786011,124.374222 716.440552,125.804970 716.070679,135.581741  	C715.730896,144.562439 715.831360,153.570099 716.044739,162.558609  	C716.271179,172.098587 715.201233,172.896393 705.050598,171.623047  	C701.104126,171.128006 697.720825,171.101471 693.863342,171.814606  	C679.618347,174.448135 670.245483,162.387421 669.075928,151.801605  	C667.517151,137.692169 678.040100,125.961456 692.525513,126.047523  M697.847229,153.159637  	C697.613220,150.076904 697.993347,146.739182 696.867249,144.026871  	C696.360046,142.805222 692.274292,141.761627 690.830566,142.535950  	C688.533447,143.768021 686.363586,146.353363 685.558167,148.828003  	C685.082397,150.289688 686.893738,153.171783 688.459167,154.475098  	C691.330444,156.865524 694.598694,156.426208 697.847229,153.159637  z"></path> <path fill="gray" opacity="1.000000" stroke="none" d=" M491.020569,145.383804  	C493.537964,125.617043 516.345459,120.445190 529.432922,128.266251  	C535.308350,131.777390 538.936218,142.283493 536.610046,148.632843  	C534.891479,153.323685 530.996338,154.909698 526.318970,154.975418  	C520.992493,155.050262 515.665100,155.064316 510.338348,155.128464  	C510.029083,155.132187 509.722382,155.348053 508.757263,155.715195  	C512.567017,160.472595 517.516541,158.767838 521.966064,158.752304  	C523.079224,158.748413 524.232056,158.225403 525.294861,157.772522  	C529.717957,155.887802 532.106689,157.972137 533.947754,161.812454  	C535.897766,165.879990 534.852966,168.878891 531.224854,171.178284  	C517.479553,179.889542 495.428528,171.415619 491.525116,155.753113  	C490.738922,152.598541 491.151672,149.145203 491.020569,145.383804  M508.624695,144.824310  	C511.606232,145.196182 514.587646,145.808548 517.569397,145.809952  	C518.618042,145.810440 519.667358,144.313293 520.716370,143.499985  	C519.821533,142.418900 519.119385,140.717651 517.997009,140.368912  	C514.074280,139.150101 510.888092,140.510742 508.624695,144.824310  z"></path> <path fill="gray" opacity="1.000000" stroke="none" d=" M762.179016,135.293060  	C768.757629,125.652702 778.227966,124.021759 788.360718,125.227890  	C796.721924,126.223152 802.072083,131.466583 804.277771,139.608704  	C806.335571,147.204895 803.688416,154.822479 793.630066,154.965424  	C788.206116,155.042511 782.780090,154.979111 777.304749,155.621445  	C781.760681,160.524643 787.383240,159.844513 792.411377,157.831848  	C798.105896,155.552475 802.013245,160.141418 802.315918,164.739487  	C802.565552,168.530090 800.503906,170.763290 797.291809,171.791229  	C789.087646,174.416824 780.686462,175.372452 772.586060,171.729660  	C758.622498,165.450195 754.131531,149.742279 762.179016,135.293060  M780.391113,140.420410  	C778.966614,141.769318 777.542175,143.118210 776.117676,144.467117  	C778.314148,145.771027 779.895569,146.018723 781.467407,145.968384  	C784.146973,145.882553 788.317566,146.772354 788.264465,143.086166  	C788.205139,138.965469 783.980713,140.200851 780.391113,140.420410  z"></path> <path fill="gray" opacity="1.000000" stroke="none" d=" M747.978149,156.980957  	C754.641907,158.568497 756.177795,161.059311 754.864075,167.518631  	C754.033691,171.601547 750.344360,173.470657 745.052368,172.524933  	C742.621765,172.090576 740.064331,172.050507 737.765869,171.251907  	C731.110718,168.939636 728.466248,163.642807 728.055054,157.006790  	C727.880371,154.187210 727.956482,151.347733 728.014099,148.519241  	C728.083252,145.119675 728.390930,142.225174 723.464111,141.386292  	C719.292725,140.676056 719.566711,136.232620 720.169617,133.073120  	C720.630371,130.658508 722.208435,126.928818 723.882507,126.572906  	C728.167114,125.661987 727.989685,123.171707 728.049927,120.070671  	C728.097168,117.637558 727.839233,114.711815 729.049500,112.890434  	C731.486206,109.223434 735.695129,109.493927 739.496094,110.435158  	C742.804443,111.254395 744.338196,113.681641 744.015686,117.205315  	C743.879700,118.690308 744.111755,120.207703 743.993774,121.695885  	C743.734436,124.966957 745.252197,125.967567 748.406616,126.055824  	C756.188477,126.273537 759.992371,132.063065 756.510498,138.935120  	C755.644531,140.644272 752.129761,141.014969 749.828857,141.992294  	C747.933472,142.797348 744.850037,143.139465 744.344360,144.467712  	C742.418579,149.525955 744.258179,155.232834 747.978149,156.980957  z"></path> <path fill="gray" opacity="1.000000" stroke="none" d=" M595.313110,143.682404  	C594.195435,141.792038 593.203796,140.251373 592.335449,138.644104  	C589.350952,133.120102 590.537659,128.826752 595.714600,126.240723  	C600.829529,123.685669 603.825562,124.908188 606.884644,130.697678  	C610.125183,136.830536 613.424500,142.932343 617.121948,149.839371  	C618.941223,146.958771 620.529785,144.728043 621.820007,142.336395  	C623.951538,138.385452 625.772705,134.265762 627.938538,130.334991  	C631.103638,124.590706 633.860657,123.764664 639.214539,126.643173  	C644.428528,129.446472 645.486633,132.454559 642.330566,138.145386  	C636.862915,148.004379 631.245483,157.796249 625.267700,167.351517  	C620.332581,175.240097 613.792358,175.036636 609.080994,167.188217  	C604.470825,159.508408 600.017639,151.734299 595.313110,143.682404  z"></path> <path fill="#1FCC3F" opacity="1.000000" stroke="none" d=" M128.219604,141.056427  	C128.075363,140.513611 127.931122,139.970810 127.794815,138.710526  	C127.898010,136.997437 127.993279,136.001816 128.172897,134.557892  	C128.199432,131.076294 128.141632,128.042984 128.171967,124.561676  	C128.206833,121.075409 128.153549,118.037155 128.192871,114.540520  	C128.231888,109.390526 128.178314,104.698914 128.213196,99.553291  	C128.236282,95.399628 128.170883,91.699974 128.203751,87.548569  	C128.238327,83.399277 128.174652,79.701736 128.214081,75.555267  	C128.256729,71.735619 128.196274,68.364899 128.242584,64.582161  	C128.324356,62.474239 128.299362,60.778328 128.274353,59.082417  	C128.522415,60.832813 128.983154,62.582829 128.986252,64.333664  	C129.025253,86.315544 128.998001,108.297539 128.987930,130.279510  	C128.987122,132.054169 128.987823,133.828812 128.987823,136.638702  	C131.975250,134.865585 134.162582,133.567337 136.802216,132.577667  	C140.174561,135.381012 153.288269,136.040726 156.159439,133.764389  	C156.613342,133.404510 156.734604,132.625046 157.382431,132.038254  	C158.500702,132.036728 159.246231,132.036499 160.053467,132.325424  	C160.597488,133.130203 161.079788,133.645828 161.562073,134.161453  	C162.043671,133.453079 162.525284,132.744705 163.437714,132.023346  	C170.168076,131.680862 176.470627,131.028015 182.766602,131.086258  	C197.844254,131.225754 212.918793,131.699738 228.104446,132.396423  	C232.178284,136.374115 255.847733,137.188248 260.044617,133.848969  	C260.215149,133.893127 260.385681,133.937302 260.977325,134.190018  	C261.627533,134.572220 261.863770,134.735580 262.107147,134.888641  	C263.230743,135.409622 264.354309,135.930618 266.200104,136.786469  	C266.200104,109.912407 266.200104,83.747688 266.479645,57.770203  	C266.811798,65.636543 266.864441,73.315659 266.812012,81.448685  	C266.781128,85.934402 266.855286,89.966194 266.825104,94.407120  	C266.786346,96.213928 266.851959,97.611595 266.815613,99.457191  	C266.787872,103.266373 266.862122,106.627625 266.847900,110.321671  	C266.813080,111.106995 266.866669,111.559525 266.820801,112.462677  	C266.798859,116.606781 266.876373,120.300270 266.859924,124.364998  	C266.820251,125.495422 266.874542,126.254593 266.829956,127.462952  	C266.876495,131.291611 267.021912,134.671097 267.167358,138.050583  	C267.039459,139.450043 266.911530,140.849518 266.305634,142.612579  	C260.054199,142.310211 254.282715,141.088394 248.506943,141.067734  	C208.411667,140.924271 168.315491,141.030396 128.219604,141.056427  z"></path> <path fill="#EBE303" opacity="1.000000" stroke="none" d=" M128.136597,58.711327  	C128.299362,60.778328 128.324356,62.474239 127.854385,64.667725  	C115.810600,68.221809 104.131432,70.864174 92.748466,74.447479  	C80.572205,78.280510 68.650055,82.933121 56.677803,87.391304  	C54.335255,88.263603 51.072624,89.320633 53.689308,93.172234  	C51.289646,93.889740 49.199509,94.432129 47.089760,94.556061  	C47.082600,93.011215 47.095051,91.884827 47.107506,90.758438  	C48.414402,84.572250 53.144703,81.232681 58.026814,78.330841  	C74.519333,68.528008 91.009575,58.704678 107.788109,49.407913  	C114.436264,45.724270 126.544518,46.998062 128.136597,58.711327  z"></path> <path fill="#F2E202" opacity="1.000000" stroke="none" d=" M266.917053,80.994774  	C266.864441,73.315659 266.811798,65.636543 266.797211,57.491390  	C269.344727,48.360573 278.678528,45.042679 287.772583,50.113785  	C293.678314,53.406990 299.315186,57.179028 305.152924,60.599308  	C307.077179,61.726707 309.253143,62.424530 311.170166,63.671944  	C296.323242,69.681664 281.620148,75.338219 266.917053,80.994774  z"></path> <path fill="#DFD301" opacity="1.000000" stroke="none" d=" M266.920258,112.012054  	C266.866669,111.559525 266.813080,111.106995 267.256592,110.304298  	C268.739838,109.817398 269.794159,109.860641 270.701874,109.516830  	C283.574097,104.641357 296.441101,99.750710 309.257690,94.731834  	C310.358917,94.300591 311.094177,92.934685 312.364807,91.914474  	C320.518768,89.454773 328.305267,87.076607 336.097290,84.716743  	C338.347046,84.035385 340.343658,83.231567 339.006409,80.239220  	C344.158081,82.026451 346.085571,86.466919 347.906311,91.363487  	C347.918091,93.512146 347.900818,95.316429 347.487183,97.655312  	C340.059479,100.125923 333.028198,102.061935 325.657959,103.832855  	C323.692657,103.646263 322.030853,103.394501 320.445374,103.638535  	C302.596893,106.385750 284.760162,109.209129 266.920258,112.012054  z"></path> <path fill="#EDDD01" opacity="1.000000" stroke="none" d=" M266.812012,81.448685  	C281.620148,75.338219 296.323242,69.681664 311.368347,63.949059  	C311.873474,63.938122 312.036560,64.003235 312.380005,64.297424  	C312.560333,64.526520 312.661377,64.615654 312.661377,64.615654  	C317.303680,67.209023 321.945984,69.802383 326.517212,72.941795  	C323.655304,74.888268 320.975067,76.606178 318.051270,77.625069  	C311.324310,79.969276 304.472198,81.952461 297.683075,84.120483  	C287.426422,87.395836 277.180145,90.703850 266.929474,93.997986  	C266.855286,89.966194 266.781128,85.934402 266.812012,81.448685  z"></path> <path fill="gray" opacity="1.000000" stroke="none" d=" M648.000488,153.992676  	C648.002991,146.689713 647.945618,139.884476 648.026794,133.080917  	C648.092651,127.564301 650.062927,125.958221 656.357056,126.005913  	C662.719727,126.054131 663.966614,127.136116 663.985535,132.917908  	C664.021423,143.871384 663.890686,154.826401 664.034058,165.778091  	C664.105286,171.219086 661.934204,172.184998 656.431091,172.680664  	C650.744080,173.192902 648.273804,170.870865 648.058350,165.941086  	C647.891785,162.130875 648.009338,158.308258 648.000488,153.992676  z"></path> <path fill="#E8D800" opacity="1.000000" stroke="none" d=" M266.825104,94.407120  	C277.180145,90.703850 287.426422,87.395836 297.683075,84.120483  	C304.472198,81.952461 311.324310,79.969276 318.051270,77.625069  	C320.975067,76.606178 323.655304,74.888268 326.694885,73.255898  	C330.729462,75.357803 334.515320,77.691658 338.653809,80.132370  	C340.343658,83.231567 338.347046,84.035385 336.097290,84.716743  	C328.305267,87.076607 320.518768,89.454773 311.937378,91.922607  	C296.402252,94.349243 281.659912,96.679253 266.917603,99.009262  	C266.851959,97.611595 266.786346,96.213928 266.825104,94.407120  z"></path> <path fill="#61AD03" opacity="1.000000" stroke="none" d=" M72.195786,202.366821  	C80.756050,202.389786 89.449013,202.719284 98.789177,203.311462  	C101.298805,204.048691 103.153542,204.894165 105.024979,204.932877  	C112.659180,205.090820 120.298485,205.001953 128.003464,205.435425  	C128.156616,207.898529 128.242218,209.930222 128.300079,212.248520  	C128.485916,213.059799 128.699493,213.584503 128.929962,214.423462  	C129.031555,215.362137 129.116272,215.986542 128.833572,216.837509  	C121.053429,217.376236 113.631371,217.557419 106.233810,218.083191  	C104.113914,218.233871 102.064857,219.381256 99.983315,220.071625  	C90.765038,214.272202 81.546753,208.472778 72.195786,202.366821  z"></path> <path fill="#63AC03" opacity="1.000000" stroke="none" d=" M295.968353,203.056427  	C304.786499,205.275711 313.480347,204.399353 322.512939,202.023163  	C313.829407,207.947586 304.746185,213.855179 295.151703,219.591370  	C292.216431,218.617477 289.816956,217.224640 287.363861,217.122864  	C279.917297,216.813904 272.450073,217.004272 265.097687,216.686523  	C265.504425,215.321777 265.804352,214.270691 266.275757,212.847031  	C266.638184,209.982254 266.829132,207.490036 267.487305,204.998444  	C275.367645,204.998001 282.784637,205.128021 290.191193,204.907166  	C292.133575,204.849228 294.043518,203.702927 295.968353,203.056427  z"></path> <path fill="#097562" opacity="1.000000" stroke="none" d=" M204.012268,193.874817  	C198.618637,194.271515 193.225021,194.668213 187.480835,194.798553  	C185.831528,193.689789 184.576431,192.202072 183.226852,192.110764  	C175.104431,191.561249 166.953186,191.442566 158.828690,190.915955  	C156.853882,190.787949 154.943207,189.670456 153.432404,188.996628  	C161.077347,188.282654 168.304520,187.680328 175.505280,186.849014  	C182.684311,186.020218 189.836807,184.961823 197.469498,184.003082  	C207.958496,184.002594 217.978943,184.003128 227.900711,184.325928  	C227.200928,186.098602 226.599823,187.548996 225.568283,189.008789  	C219.889923,189.490860 214.599106,189.706024 209.416336,190.569580  	C207.485016,190.891373 205.806213,192.728622 204.012268,193.874817  z"></path> <path fill="#56D632" opacity="1.000000" stroke="none" d=" M154.009476,122.866768  	C156.135406,121.574898 158.261337,120.283020 160.920288,119.228149  	C163.962906,119.912773 166.472595,120.729523 168.982117,120.728996  	C173.790985,120.727974 178.603333,119.981064 183.407867,120.042458  	C198.204163,120.231529 212.996582,120.744980 227.792847,120.885544  	C229.832520,120.904907 231.885437,119.528984 233.932220,118.799026  	C236.828720,120.293434 239.725204,121.787827 242.601868,123.886360  	C240.567444,124.915649 238.552109,125.695961 236.538422,125.691750  	C232.396729,125.683098 228.256638,125.048752 224.114609,125.034004  	C202.984589,124.958778 181.853683,125.062782 160.724579,124.905441  	C158.481277,124.888741 156.247604,123.577469 154.009476,122.866768  z"></path> <path fill="#6EB404" opacity="1.000000" stroke="none" d=" M264.990875,217.000168  	C272.450073,217.004272 279.917297,216.813904 287.363861,217.122864  	C289.816956,217.224640 292.216431,218.617477 294.831268,219.730652  	C292.603912,221.607697 290.160553,223.136658 287.771790,224.746689  	C275.861023,232.774582 260.582703,232.788986 248.550537,224.247986  	C255.620682,224.875961 261.392090,223.494156 264.990875,217.000168  z"></path> <path fill="#0B716B" opacity="1.000000" stroke="none" d=" M153.003052,189.007935  	C154.943207,189.670456 156.853882,190.787949 158.828690,190.915955  	C166.953186,191.442566 175.104431,191.561249 183.226852,192.110764  	C184.576431,192.202072 185.831528,193.689789 187.071411,194.844788  	C184.580338,196.701736 182.148148,198.246063 179.212799,199.633759  	C176.342392,198.652222 173.969757,197.103195 171.608826,197.120880  	C157.181686,197.228821 142.757202,197.692261 128.260910,197.595245  	C128.229141,194.789062 128.268280,192.424820 128.756439,190.052490  	C137.137985,189.698898 145.070526,189.353424 153.003052,189.007935  z"></path> <path fill="#6EB404" opacity="1.000000" stroke="none" d=" M100.141136,220.375031  	C102.064857,219.381256 104.113914,218.233871 106.233810,218.083191  	C113.631371,217.557419 121.053429,217.376236 129.082169,217.077560  	C133.612381,224.092712 140.101837,224.629196 147.053925,224.004242  	C133.064224,233.155762 119.132065,233.195709 105.240997,223.768295  	C103.634560,222.678055 101.948235,221.705536 100.141136,220.375031  z"></path> <path fill="#0B6062" opacity="1.000000" stroke="none" d=" M222.964249,205.289124  	C221.507507,204.281235 220.050781,203.273315 218.132217,201.933777  	C217.435181,201.389755 217.187439,201.193130 216.927200,201.012253  	C216.927200,201.012253 216.990341,200.995453 216.823700,200.842468  	C216.413864,200.459015 216.170700,200.228561 215.927521,199.998093  	C215.927521,199.998093 215.949493,200.092438 216.109924,199.795624  	C218.361282,198.663803 220.383957,197.447723 222.554794,197.058945  	C232.677368,195.246063 242.840851,193.661713 253.453827,191.995636  	C256.079376,191.998489 258.248322,192.117813 260.400635,191.979111  	C264.469971,191.716919 266.293701,193.513412 265.943085,197.573685  	C265.843109,198.731461 265.845459,199.898071 265.361053,201.050049  	C254.282425,201.387802 243.628433,201.508713 233.013580,202.216309  	C229.610641,202.443146 226.311096,204.220932 222.964249,205.289124  z"></path> <path fill="#0E4869" opacity="1.000000" stroke="none" d=" M265.097687,216.686523  	C261.392090,223.494156 255.620682,224.875961 248.386383,223.938599  	C247.939529,224.010300 248.018845,223.997879 247.975082,223.929596  	C247.744446,223.687454 247.546249,223.699097 247.336731,223.896271  	C243.108856,220.697876 238.880981,217.499466 234.425079,213.748688  	C235.656174,212.150742 237.060745,210.295227 238.583359,210.192688  	C247.635086,209.583084 256.714111,209.379074 265.819214,209.455200  	C265.937775,210.987625 266.021027,212.103607 266.104279,213.219604  	C265.804352,214.270691 265.504425,215.321777 265.097687,216.686523  z"></path> <path fill="#75DA2C" opacity="1.000000" stroke="none" d=" M233.755219,118.523529  	C231.885437,119.528984 229.832520,120.904907 227.792847,120.885544  	C212.996582,120.744980 198.204163,120.231529 183.407867,120.042458  	C178.603333,119.981064 173.790985,120.727974 168.982117,120.728996  	C166.472595,120.729523 163.962906,119.912773 161.269745,119.131241  	C163.451935,117.523514 165.817673,116.249695 168.913406,115.127441  	C171.923477,115.478882 174.289261,116.175278 176.469864,115.798866  	C191.806641,113.151360 207.043884,113.800636 222.303085,116.436249  	C223.697906,116.677162 225.355911,115.394470 226.891708,114.819290  	C229.120544,115.962204 231.349396,117.105118 233.755219,118.523529  z"></path> <path fill="#42D437" opacity="1.000000" stroke="none" d=" M153.675690,122.935196  	C156.247604,123.577469 158.481277,124.888741 160.724579,124.905441  	C181.853683,125.062782 202.984589,124.958778 224.114609,125.034004  	C228.256638,125.048752 232.396729,125.683098 236.538422,125.691750  	C238.552109,125.695961 240.567444,124.915649 242.784622,124.175552  	C244.548660,124.672585 246.110107,125.484566 247.814209,126.876694  	C246.191132,127.972641 244.425095,128.936340 242.659698,128.935120  	C224.539566,128.922623 206.419678,128.687805 188.299454,128.652191  	C176.692719,128.629379 165.083710,128.967484 153.480423,128.805923  	C151.626236,128.780090 149.796814,126.976295 147.955933,125.994453  	C147.955933,125.994453 147.956070,125.950844 148.246002,125.906563  	C149.029800,125.630638 149.523682,125.398994 150.017548,125.167358  	C151.125671,124.446121 152.233795,123.724876 153.675690,122.935196  z"></path> <path fill="#32D13A" opacity="1.000000" stroke="none" d=" M147.641190,126.110901  	C149.796814,126.976295 151.626236,128.780090 153.480423,128.805923  	C165.083710,128.967484 176.692719,128.629379 188.299454,128.652191  	C206.419678,128.687805 224.539566,128.922623 242.659698,128.935120  	C244.425095,128.936340 246.191132,127.972641 247.987122,127.163208  	C249.470337,127.858009 250.923294,128.846451 252.591003,130.326141  	C251.935089,131.456528 251.058487,132.656006 250.194717,132.646805  	C242.793350,132.568161 235.394333,132.270721 227.994598,132.038696  	C212.918793,131.699738 197.844254,131.225754 182.766602,131.086258  	C176.470627,131.028015 170.168076,131.680862 163.060822,132.016068  	C161.499329,132.026611 160.745544,132.031448 159.991745,132.036270  	C159.246231,132.036499 158.500702,132.036728 156.916092,132.028549  	C154.261383,132.013596 152.403122,132.252029 150.639755,131.945206  	C147.721069,131.437393 144.863510,130.578293 141.980194,129.867218  	C143.762268,128.653931 145.544357,127.440636 147.641190,126.110901  z"></path> <path fill="#0D6870" opacity="1.000000" stroke="none" d=" M128.331833,198.037201  	C142.757202,197.692261 157.181686,197.228821 171.608826,197.120880  	C173.969757,197.103195 176.342392,198.652222 178.916748,199.797180  	C179.123856,200.117218 179.048477,200.091660 178.869751,200.185394  	C178.439682,200.461548 178.205063,200.663391 177.987152,200.884659  	C175.227600,202.932861 172.468063,204.981064 169.415649,206.776459  	C167.491516,205.683594 165.871857,204.142776 164.227188,204.115616  	C152.271042,203.918137 140.309891,204.025558 128.278015,203.610565  	C128.247757,201.468765 128.289795,199.752975 128.331833,198.037201  z"></path> <path fill="#0C5466" opacity="1.000000" stroke="none" d=" M265.783966,209.038788  	C256.714111,209.379074 247.635086,209.583084 238.583359,210.192688  	C237.060745,210.295227 235.656174,212.150742 234.145447,213.565979  	C230.499741,211.234604 226.905640,208.533554 223.137909,205.560822  	C226.311096,204.220932 229.610641,202.443146 233.013580,202.216309  	C243.628433,201.508713 254.282425,201.387802 265.390198,201.489441  	C265.834076,204.305893 265.809021,206.672333 265.783966,209.038788  z"></path> <path fill="#10547C" opacity="1.000000" stroke="none" d=" M147.016113,224.000488  	C140.101837,224.629196 133.612381,224.092712 129.449570,216.850983  	C129.116272,215.986542 129.031555,215.362137 128.966644,214.059250  	C128.995026,212.891190 129.003601,212.401642 129.202545,211.652252  	C139.054214,211.315323 148.716019,211.188232 158.375458,211.289566  	C158.934998,211.295425 159.475113,213.156097 160.024277,214.153580  	C156.223755,217.122971 152.423218,220.092361 148.064484,223.224701  	C147.205063,223.519897 147.026611,223.748138 146.970917,224.072388  	C146.970917,224.072388 146.978302,223.996750 147.016113,224.000488  z"></path> <path fill="#91DE27" opacity="1.000000" stroke="none" d=" M226.682938,114.527725  	C225.355911,115.394470 223.697906,116.677162 222.303085,116.436249  	C207.043884,113.800636 191.806641,113.151360 176.469864,115.798866  	C174.289261,116.175278 171.923477,115.478882 169.279358,115.088516  	C175.788986,110.563347 183.222794,107.903549 191.408432,108.059090  	C198.229980,108.188705 205.132645,108.165009 211.832230,109.245567  	C216.850632,110.054962 221.603226,112.512466 226.682938,114.527725  z"></path> <path fill="#0E5E76" opacity="1.000000" stroke="none" d=" M160.370819,214.088165  	C159.475113,213.156097 158.934998,211.295425 158.375458,211.289566  	C148.716019,211.188232 139.054214,211.315323 129.031219,211.662811  	C128.669510,211.933228 128.327820,211.961929 128.327820,211.961929  	C128.242218,209.930222 128.156616,207.898529 128.109436,205.194565  	C128.215347,204.360413 128.282822,204.198517 128.350311,204.036591  	C140.309891,204.025558 152.271042,203.918137 164.227188,204.115616  	C165.871857,204.142776 167.491516,205.683594 169.065155,206.838837  	C166.244171,209.443604 163.480774,211.733170 160.370819,214.088165  z"></path> <path fill="#0A6A62" opacity="1.000000" stroke="none" d=" M252.989716,191.995636  	C242.840851,193.661713 232.677368,195.246063 222.554794,197.058945  	C220.383957,197.447723 218.361282,198.663803 216.062759,199.806641  	C212.120850,198.147232 208.386551,196.179977 204.332245,194.043762  	C205.806213,192.728622 207.485016,190.891373 209.416336,190.569580  	C214.599106,189.706024 219.889923,189.490860 225.972290,189.101898  	C229.113892,189.457947 231.418503,189.754211 233.728668,189.998047  	C240.147781,190.675568 246.569199,191.331299 252.989716,191.995636  z"></path> <path fill="gray" opacity="1.000000" stroke="none" d=" M663.945190,109.502136  	C663.978149,110.759720 664.184814,111.648247 663.959717,112.409096  	C663.252686,114.799179 662.819336,118.831825 661.492004,119.174232  	C657.982300,120.079643 653.624268,120.346001 650.471985,118.931763  	C648.752502,118.160362 648.213196,113.448036 648.257874,110.530151  	C648.286133,108.685135 649.951050,106.112175 651.616089,105.187248  	C656.503113,102.472458 661.781677,104.402359 663.945190,109.502136  z"></path> <path fill="#22D03E" opacity="1.000000" stroke="none" d=" M228.104446,132.396408  	C235.394333,132.270721 242.793350,132.568161 250.194717,132.646805  	C251.058487,132.656006 251.935089,131.456528 252.903198,130.480743  	C255.228485,131.186600 257.456329,132.229095 259.864380,133.560272  	C255.847733,137.188248 232.178284,136.374115 228.104446,132.396408  z"></path> <path fill="#91DE27" opacity="1.000000" stroke="none" d=" M46.747349,91.034668  	C47.095051,91.884827 47.082600,93.011215 47.028290,95.016098  	C47.009609,99.589676 47.032791,103.284752 47.010857,107.439774  	C46.993492,111.588295 47.021252,115.276878 47.007721,119.432938  	C47.009468,124.922165 47.052505,129.943924 47.058846,135.394485  	C47.044788,137.538239 47.067432,139.253189 47.055191,141.413452  	C47.044750,144.225388 47.069195,146.592041 47.063812,149.401978  	C47.051014,152.210052 47.068035,154.574829 47.053185,157.369812  	C47.019009,159.506866 47.016708,161.213760 47.014408,162.920639  	C47.014408,162.920639 46.610046,162.976868 46.410938,163.023132  	C46.270283,139.149887 46.328735,115.230385 46.747349,91.034668  z"></path> <path fill="#22D03E" opacity="1.000000" stroke="none" d=" M141.635406,129.934708  	C144.863510,130.578293 147.721069,131.437393 150.639755,131.945206  	C152.403122,132.252029 154.261383,132.013596 156.543335,132.029861  	C156.734604,132.625046 156.613342,133.404510 156.159439,133.764389  	C153.288269,136.040726 140.174561,135.381012 137.147720,132.536072  	C138.457489,131.458008 139.874054,130.730103 141.635406,129.934708  z"></path> <path fill="#63AC03" opacity="1.000000" stroke="none" d=" M323.431702,201.884460  	C323.578522,201.606262 323.993988,201.348831 324.661591,201.074005  	C324.509277,201.339478 324.104797,201.622345 323.431702,201.884460  z"></path> <path fill="#61AD03" opacity="1.000000" stroke="none" d=" M68.278931,200.337479  	C68.630463,200.254471 69.088913,200.410217 69.717834,200.744049  	C69.387489,200.806824 68.886665,200.691528 68.278931,200.337479  z"></path> <path fill="#32D13A" opacity="1.000000" stroke="none" d=" M149.716370,125.120331  	C149.523682,125.398994 149.029800,125.630638 148.267014,125.912376  	C148.470459,125.666084 148.942841,125.369698 149.716370,125.120331  z"></path> <path fill="#61AD03" opacity="1.000000" stroke="none" d=" M70.137115,201.272141  	C70.335510,201.102112 70.562477,201.214310 70.870392,201.549652  	C70.986000,201.702682 70.547272,201.758530 70.547272,201.758530  	C70.547272,201.758530 70.200333,201.484283 70.137115,201.272141  z"></path> <path fill="#0A6A62" opacity="1.000000" stroke="none" d=" M217.006134,201.266266  	C217.187439,201.193130 217.435181,201.389755 217.838562,201.770203  	C217.699509,201.798935 217.392273,201.659607 217.006134,201.266266  z"></path> <path fill="#63AC03" opacity="1.000000" stroke="none" d=" M325.337677,200.866974  	C325.239807,200.642166 325.427795,200.425690 325.869293,200.166229  	C326.006287,200.395020 325.839844,200.645706 325.337677,200.866974  z"></path> <path fill="#0A6A62" opacity="1.000000" stroke="none" d=" M216.014862,200.253479  	C216.170700,200.228561 216.413864,200.459015 216.826477,200.875015  	C216.697998,200.876648 216.400101,200.692749 216.014862,200.253479  z"></path> <path fill="#F2E202" opacity="1.000000" stroke="none" d=" M312.720093,64.570641  	C312.661377,64.615654 312.560333,64.526520 312.557434,64.492104  	C312.554504,64.457687 312.778778,64.525627 312.720093,64.570641  z"></path> <path fill="#0B716B" opacity="1.000000" stroke="none" d=" M178.248993,200.871704  	C178.205063,200.663391 178.439682,200.461548 178.882416,200.147644  	C178.886139,200.297028 178.698486,200.577896 178.248993,200.871704  z"></path> <path fill="#61AD03" opacity="1.000000" stroke="none" d=" M67.050156,199.305786  	C67.237350,199.191757 67.453636,199.338135 67.737564,199.707611  	C67.524910,199.905655 67.282928,199.784149 67.050156,199.305786  z"></path> <path fill="#22D03E" opacity="1.000000" stroke="none" d=" M262.018158,134.659119  	C261.863770,134.735580 261.627533,134.572220 261.231720,134.261642  	C261.433777,133.998032 261.721802,134.099655 262.018158,134.659119  z"></path> <path fill="#6EB404" opacity="1.000000" stroke="none" d=" M147.168884,223.998840  	C147.026611,223.748138 147.205063,223.519897 147.730164,223.363174  	C147.827393,223.603378 147.631653,223.798904 147.168884,223.998840  z"></path> <path fill="#6EB404" opacity="1.000000" stroke="none" d=" M247.510696,223.940063  	C247.546249,223.699097 247.744446,223.687454 247.981201,223.969269  	C248.031097,224.077209 247.684662,223.983856 247.510696,223.940063  z"></path> <path fill="#C0CC00" opacity="1.000000" stroke="none" d=" M347.769775,131.964691  	C347.785126,137.984161 347.800446,144.003647 347.338440,150.497711  	C330.871552,150.981537 314.881805,150.954071 298.892700,151.041199  	C296.605042,151.053650 294.320404,151.620148 292.034363,151.930237  	C285.036621,147.900009 278.038849,143.869781 271.200012,139.459366  	C286.942963,134.967484 302.555603,131.284866 318.896637,131.928741  	C328.506561,132.307388 338.144470,131.976471 347.769775,131.964691  z"></path> <path fill="#03CB47" opacity="1.000000" stroke="none" d=" M128.177628,141.500793  	C168.315491,141.030396 208.411667,140.924271 248.506943,141.067734  	C254.282715,141.088394 260.054199,142.310211 266.222351,143.026031  	C266.635254,148.402100 266.653503,153.728302 266.240845,159.466949  	C255.206421,157.583618 244.602890,155.287888 233.819977,152.697144  	C232.849319,151.825272 232.139648,151.014282 231.254807,150.705811  	C209.482483,143.115738 187.713699,140.178864 165.596130,150.935150  	C152.880249,150.584717 140.582642,150.284546 128.285034,149.984375  	C128.235245,147.304626 128.185440,144.624893 128.177628,141.500793  z"></path> <path fill="#CBCD00" opacity="1.000000" stroke="none" d=" M347.805420,131.500122  	C338.144470,131.976471 328.506561,132.307388 318.896637,131.928741  	C302.555603,131.284866 286.942963,134.967484 270.944153,139.230804  	C269.602661,138.995117 268.675903,138.607819 267.458252,138.135544  	C267.021912,134.671097 266.876495,131.291611 267.246216,127.438751  	C276.895386,125.131721 285.992096,123.079239 295.171539,121.511330  	C312.685883,118.519768 330.247375,115.804482 347.789307,112.974510  	C347.806549,118.994858 347.823792,125.015205 347.805420,131.500122  z"></path> <path fill="#B4CC00" opacity="1.000000" stroke="none" d=" M292.279358,152.165710  	C294.320404,151.620148 296.605042,151.053650 298.892700,151.041199  	C314.881805,150.954071 330.871552,150.981537 347.309326,150.962097  	C347.805359,154.597626 347.951965,158.245300 347.882172,161.888809  	C347.679199,172.484085 338.217926,178.345520 328.714447,173.234756  	C316.460388,166.644775 304.570862,159.377029 292.279358,152.165710  z"></path> <path fill="#D6CF00" opacity="1.000000" stroke="none" d=" M347.827454,112.511414  	C330.247375,115.804482 312.685883,118.519768 295.171539,121.511330  	C285.992096,123.079239 276.895386,125.131721 267.345093,126.989578  	C266.874542,126.254593 266.820251,125.495422 267.228516,124.279694  	C279.174713,120.032944 290.680054,116.306999 302.134521,112.430557  	C310.124756,109.726463 318.045258,106.816162 325.996887,103.997955  	C333.028198,102.061935 340.059479,100.125923 347.449921,98.099792  	C347.827881,102.689232 347.846741,107.368774 347.827454,112.511414  z"></path> <path fill="#0B7058" opacity="1.000000" stroke="none" d=" M253.453827,191.995636  	C246.569199,191.331299 240.147781,190.675568 233.728668,189.998047  	C231.418503,189.754211 229.113892,189.457947 226.402740,189.092499  	C226.599823,187.548996 227.200928,186.098602 228.328522,184.315918  	C233.561203,183.370148 238.303162,182.949768 242.963287,182.087280  	C247.362564,181.273071 251.675781,179.993866 256.345947,179.055115  	C259.954529,180.967896 263.243958,182.744766 266.533417,184.521622  	C266.654999,184.832596 266.776581,185.143570 266.906403,186.155090  	C266.949768,192.903030 266.984924,198.950424 267.020081,204.997833  	C266.829132,207.490036 266.638184,209.982254 266.275757,212.847031  	C266.021027,212.103607 265.937775,210.987625 265.819214,209.455200  	C265.809021,206.672333 265.834076,204.305893 265.830017,201.500031  	C265.845459,199.898071 265.843109,198.731461 265.943085,197.573685  	C266.293701,193.513412 264.469971,191.716919 260.400635,191.979111  	C258.248322,192.117813 256.079376,191.998489 253.453827,191.995636  z"></path> <path fill="#04C654" opacity="1.000000" stroke="none" d=" M233.999374,152.992157  	C244.602890,155.287888 255.206421,157.583618 266.161987,159.926361  	C266.558868,164.675766 266.603668,169.378143 266.242645,174.481216  	C254.225128,168.925735 242.613480,162.969589 231.101883,156.710098  	C232.134415,155.268555 233.066895,154.130356 233.999374,152.992157  z"></path> <path fill="#04C661" opacity="1.000000" stroke="none" d=" M231.001831,157.013428  	C242.613480,162.969589 254.225128,168.925735 266.155975,174.939575  	C266.535217,177.838440 266.595306,180.679642 266.594421,184.021225  	C263.243958,182.744766 259.954529,180.967896 256.106140,178.825531  	C252.042496,176.278366 248.537796,174.096725 244.793488,171.684296  	C240.415970,168.902267 236.278091,166.350998 231.915253,163.555481  	C228.793716,161.237396 225.897141,159.163559 223.313782,156.922577  	C226.085281,156.841415 228.543564,156.927414 231.001831,157.013428  z"></path> <path fill="#5BAB01" opacity="1.000000" stroke="none" d=" M267.487305,204.998444  	C266.984924,198.950424 266.949768,192.903030 267.003510,186.385986  	C274.353546,190.272903 281.609619,194.637878 288.878906,198.980804  	C291.020996,200.260590 293.200348,201.478012 295.665497,202.890228  	C294.043518,203.702927 292.133575,204.849228 290.191193,204.907166  	C282.784637,205.128021 275.367645,204.998001 267.487305,204.998444  z"></path> <path fill="#B7CD00" opacity="1.000000" stroke="none" d=" M47.085056,156.939621  	C47.068035,154.574829 47.051014,152.210052 47.471962,149.403687  	C54.707859,147.448898 61.489365,145.856842 68.306808,144.437378  	C88.078918,140.320648 107.432037,133.521362 128.088547,135.006195  	C127.993279,136.001816 127.898010,136.997437 127.622253,138.326233  	C118.836586,143.345245 110.231400,148.031082 100.917465,152.715027  	C90.971832,152.676727 81.690575,152.064423 72.511040,152.771927  	C63.979321,153.429504 55.556065,155.494354 47.085056,156.939621  z"></path> <path fill="#ACCC00" opacity="1.000000" stroke="none" d=" M47.053185,157.369812  	C55.556065,155.494354 63.979321,153.429504 72.511040,152.771927  	C81.690575,152.064423 90.971832,152.676727 100.598190,152.854477  	C89.224289,159.867676 77.636345,167.066803 65.637688,173.499893  	C57.213398,178.016602 48.752991,173.184677 47.040611,163.312729  	C47.016708,161.213760 47.019009,159.506866 47.053185,157.369812  z"></path> <path fill="#0A7E63" opacity="1.000000" stroke="none" d=" M153.432404,188.996643  	C145.070526,189.353424 137.137985,189.698898 128.682495,189.639618  	C128.033920,188.127655 127.908295,187.020447 127.782677,185.913239  	C127.782677,185.913239 127.990524,185.460800 128.420654,185.126221  	C131.214630,183.489258 133.578491,182.186859 136.315704,181.079910  	C138.822098,181.516907 140.959213,181.998001 143.087509,181.961624  	C158.392273,181.700165 173.695251,181.333740 189.316559,181.167908  	C192.089874,182.224823 194.545410,183.114441 197.000946,184.004074  	C189.836807,184.961823 182.684311,186.020218 175.505280,186.849014  	C168.304520,187.680328 161.077347,188.282654 153.432404,188.996643  z"></path> <path fill="#5BAB01" opacity="1.000000" stroke="none" d=" M127.449944,186.003326  	C127.908295,187.020447 128.033920,188.127655 128.233490,189.647720  	C128.268280,192.424820 128.229141,194.789062 128.260910,197.595245  	C128.289795,199.752975 128.247757,201.468765 128.278015,203.610565  	C128.282822,204.198517 128.215347,204.360413 128.041885,204.763168  	C120.298485,205.001953 112.659180,205.090820 105.024979,204.932877  	C103.153542,204.894165 101.298805,204.048691 99.206558,203.266174  	C108.356895,197.336624 117.737053,191.715027 127.449944,186.003326  z"></path> <path fill="#07BE70" opacity="1.000000" stroke="none" d=" M135.942352,180.884460  	C133.578491,182.186859 131.214630,183.489258 128.539825,184.907669  	C128.218826,179.014206 128.208755,173.004745 128.699860,166.527679  	C135.138275,165.705902 141.075500,165.351700 147.324554,165.152435  	C150.734436,165.847183 153.832474,166.386993 156.655487,167.123566  	C153.227066,169.521072 150.073669,171.721817 146.591827,174.033936  	C142.823029,176.391708 139.382690,178.638092 135.942352,180.884460  z"></path> <path fill="#02C053" opacity="1.000000" stroke="none" d=" M128.225861,150.412018  	C140.582642,150.284546 152.880249,150.584717 165.592026,151.312393  	C166.001526,152.493423 165.996872,153.246918 165.671783,154.158569  	C160.901505,155.876373 156.451660,157.436050 151.666489,158.812973  	C143.652283,157.752350 135.973404,156.874481 128.294525,155.996613  	C128.251907,154.277634 128.209290,152.558640 128.225861,150.412018  z"></path> <path fill="#06B85B" opacity="1.000000" stroke="none" d=" M128.231186,156.449005  	C135.973404,156.874481 143.652283,157.752350 151.528549,159.107056  	C150.154877,161.388443 148.583817,163.192978 147.012756,164.997513  	C141.075500,165.351700 135.138275,165.705902 128.758194,166.067505  	C128.266174,163.017075 128.217010,159.959244 128.231186,156.449005  z"></path>  <path fill="#CDD402" opacity="1.000000" stroke="none" d=" M47.095543,134.965698  	C47.052505,129.943924 47.009468,124.922165 47.406433,119.421402  	C48.666901,118.835541 49.504921,118.802193 50.305298,118.611160  	C76.247345,112.419243 102.185768,106.212135 128.124725,100.007294  	C128.178314,104.698914 128.231888,109.390526 127.802513,114.627052  	C111.712471,119.114647 96.119003,123.112289 80.493706,126.981400  	C69.383194,129.732544 58.229797,132.310471 47.095543,134.965698  z"></path> <path fill="#DCD900" opacity="1.000000" stroke="none" d=" M128.213196,99.553291  	C102.185768,106.212135 76.247345,112.419243 50.305298,118.611160  	C49.504921,118.802193 48.666901,118.835541 47.447723,118.953934  	C47.021252,115.276878 46.993492,111.588295 47.412575,107.422958  	C63.274376,103.005714 78.645424,98.881401 94.118935,95.186066  	C105.377686,92.497284 116.771751,90.375107 128.105484,88.000313  	C128.170883,91.699974 128.236282,95.399628 128.213196,99.553291  z"></path> <path fill="#E5DE00" opacity="1.000000" stroke="none" d=" M128.203751,87.548569  	C116.771751,90.375107 105.377686,92.497284 94.118935,95.186066  	C78.645424,98.881401 63.274376,103.005714 47.457699,106.963028  	C47.032791,103.284752 47.009609,99.589676 47.047897,95.434555  	C49.199509,94.432129 51.289646,93.889740 54.076794,93.083496  	C63.517727,90.829369 72.264656,88.852203 81.004913,86.845970  	C96.709038,83.241241 112.409164,79.619072 128.110962,76.004196  	C128.174652,79.701736 128.238327,83.399277 128.203751,87.548569  z"></path> <path fill="#ECE100" opacity="1.000000" stroke="none" d=" M128.214081,75.555267  	C112.409164,79.619072 96.709038,83.241241 81.004913,86.845970  	C72.264656,88.852203 63.517727,90.829369 54.386322,92.908371  	C51.072624,89.320633 54.335255,88.263603 56.677803,87.391304  	C68.650055,82.933121 80.572205,78.280510 92.748466,74.447479  	C104.131432,70.864174 115.810600,68.221809 127.747604,65.079742  	C128.196274,68.364899 128.256729,71.735619 128.214081,75.555267  z"></path> <path fill="#C7D100" opacity="1.000000" stroke="none" d=" M47.058846,135.394485  	C58.229797,132.310471 69.383194,129.732544 80.493706,126.981400  	C96.119003,123.112289 111.712471,119.114647 127.709908,115.085426  	C128.153549,118.037155 128.206833,121.075409 127.738617,124.562256  	C119.561852,126.488914 111.897865,127.923424 104.253044,129.453659  	C85.194077,133.268646 66.143822,137.127136 47.090073,140.968170  	C47.067432,139.253189 47.044788,137.538239 47.058846,135.394485  z"></path> <path fill="#BFD000" opacity="1.000000" stroke="none" d=" M47.055191,141.413452  	C66.143822,137.127136 85.194077,133.268646 104.253044,129.453659  	C111.897865,127.923424 119.561852,126.488914 127.650475,125.010269  	C128.141632,128.042984 128.199432,131.076294 128.172897,134.557892  	C107.432037,133.521362 88.078918,140.320648 68.306808,144.437378  	C61.489365,145.856842 54.707859,147.448898 47.501789,148.960403  	C47.069195,146.592041 47.044750,144.225388 47.055191,141.413452  z"></path> <path fill="#D9D300" opacity="1.000000" stroke="none" d=" M325.657959,103.832855  	C318.045258,106.816162 310.124756,109.726463 302.134521,112.430557  	C290.680054,116.306999 279.174713,120.032944 267.322479,123.908447  	C266.876373,120.300270 266.798859,116.606781 266.820801,112.462677  	C284.760162,109.209129 302.596893,106.385750 320.445374,103.638535  	C322.030853,103.394501 323.692657,103.646263 325.657959,103.832855  z"></path> <path fill="#E2D800" opacity="1.000000" stroke="none" d=" M266.815613,99.457184  	C281.659912,96.679253 296.402252,94.349243 311.572021,92.011101  	C311.094177,92.934685 310.358917,94.300591 309.257690,94.731834  	C296.441101,99.750710 283.574097,104.641357 270.701874,109.516830  	C269.794159,109.860641 268.739838,109.817398 267.345032,109.971512  	C266.862122,106.627625 266.787872,103.266373 266.815613,99.457184  z"></path> <path fill="#22D03E" opacity="1.000000" stroke="none" d=" M160.053467,132.325424  	C160.745544,132.031448 161.499329,132.026611 162.630005,132.029053  	C162.525284,132.744705 162.043671,133.453079 161.562073,134.161453  	C161.079788,133.645828 160.597488,133.130203 160.053467,132.325424  z"></path> <path fill="#0A7E63" opacity="1.000000" stroke="none" d=" M128.300079,212.248520  	C128.327820,211.961929 128.669510,211.933228 128.840851,211.922653  	C129.003601,212.401642 128.995026,212.891190 128.949768,213.744965  	C128.699493,213.584503 128.485916,213.059799 128.300079,212.248520  z"></path> <path fill="#077D58" opacity="1.000000" stroke="none" d=" M197.469498,184.003082  	C194.545410,183.114441 192.089874,182.224823 189.672455,180.997208  	C197.805313,179.105515 205.900055,177.551834 214.437500,175.997223  	C220.988220,175.426956 227.115448,175.008698 233.197372,174.234604  	C237.176559,173.728165 241.090134,172.706177 245.033096,171.915085  	C248.537796,174.096725 252.042496,176.278366 255.787018,178.689606  	C251.675781,179.993866 247.362564,181.273071 242.963287,182.087280  	C238.303162,182.949768 233.561203,183.370148 228.427185,183.993652  	C217.978943,184.003128 207.958496,184.002594 197.469498,184.003082  z"></path> <path fill="#01CF50" opacity="1.000000" stroke="none" d=" M165.992203,154.000427  	C165.996872,153.246918 166.001526,152.493423 166.010300,151.362671  	C187.713699,140.178864 209.482483,143.115738 231.254807,150.705811  	C232.139648,151.014282 232.849319,151.825272 233.819977,152.697144  	C233.066895,154.130356 232.134415,155.268555 231.101883,156.710083  	C228.543564,156.927414 226.085281,156.841415 223.006805,156.830154  	C221.590942,156.599258 220.795303,156.293610 219.739258,155.759811  	C217.394714,154.544861 215.378021,153.367401 213.215424,152.602509  	C200.178207,147.991379 187.499603,149.567047 174.702103,154.886261  	C171.544159,154.498047 168.768173,154.249237 165.992203,154.000427  z"></path> <path fill="#049B4E" opacity="1.000000" stroke="none" d=" M219.999664,155.987976  	C220.795303,156.293610 221.590942,156.599258 222.693573,156.997314  	C225.897141,159.163559 228.793716,161.237396 231.568054,163.763519  	C226.294876,164.814392 221.143921,165.412964 215.525284,166.008499  	C198.649002,166.336945 182.241013,166.711151 165.831070,166.950485  	C163.563095,166.983582 161.285385,166.349213 159.252975,165.789795  	C162.999039,163.375992 166.504303,161.196259 170.381592,159.187714  	C171.883759,159.564362 173.020966,159.980362 174.142914,159.942657  	C185.017593,159.577057 195.903732,159.344131 206.755753,158.614456  	C211.209122,158.315018 215.587296,156.897110 219.999664,155.987976  z"></path> <path fill="#068B52" opacity="1.000000" stroke="none" d=" M215.992966,166.011566  	C221.143921,165.412964 226.294876,164.814392 231.793015,164.007767  	C236.278091,166.350998 240.415970,168.902267 244.793488,171.684296  	C241.090134,172.706177 237.176559,173.728165 233.197372,174.234604  	C227.115448,175.008698 220.988220,175.426956 214.064545,175.822937  	C209.824631,175.432892 206.389542,175.322845 202.978607,174.975372  	C197.310944,174.398026 191.658829,173.668228 186.356293,172.831207  	C194.313217,171.417770 201.940231,170.311600 209.498718,168.850815  	C211.761841,168.413422 213.833557,166.985611 215.992966,166.011566  z"></path> <path fill="#07875C" opacity="1.000000" stroke="none" d=" M186.000153,173.002625  	C191.658829,173.668228 197.310944,174.398026 202.978607,174.975372  	C206.389542,175.322845 209.824631,175.432892 213.621826,175.823883  	C205.900055,177.551834 197.805313,179.105515 189.354691,180.829910  	C173.695251,181.333740 158.392273,181.700165 143.087509,181.961624  	C140.959213,181.998001 138.822098,181.516907 136.315704,181.079910  	C139.382690,178.638092 142.823029,176.391708 146.987213,174.188934  	C149.986115,174.487671 152.277573,175.060318 154.533386,174.943710  	C165.027710,174.401108 175.512161,173.667740 186.000153,173.002625  z"></path> <path fill="#069255" opacity="1.000000" stroke="none" d=" M186.356293,172.831223  	C175.512161,173.667740 165.027710,174.401108 154.533386,174.943710  	C152.277573,175.060318 149.986115,174.487671 147.315674,174.077545  	C150.073669,171.721817 153.227066,169.521072 156.919556,167.017212  	C157.976486,166.484024 158.494339,166.253937 159.012192,166.023834  	C161.285385,166.349213 163.563095,166.983582 165.831070,166.950485  	C182.241013,166.711151 198.649002,166.336945 215.525284,166.008514  	C213.833557,166.985611 211.761841,168.413422 209.498718,168.850815  	C201.940231,170.311600 194.313217,171.417770 186.356293,172.831223  z"></path> <path fill="#04C661" opacity="1.000000" stroke="none" d=" M159.252975,165.789795  	C158.494339,166.253937 157.976486,166.484024 157.194580,166.820465  	C153.832474,166.386993 150.734436,165.847183 147.324570,165.152435  	C148.583817,163.192978 150.154877,161.388443 151.863876,159.289825  	C156.451660,157.436050 160.901505,155.876373 165.671783,154.158569  	C168.768173,154.249237 171.544159,154.498047 174.461182,155.105988  	C173.071335,156.648911 171.540451,157.832718 170.009567,159.016510  	C166.504303,161.196259 162.999039,163.375992 159.252975,165.789795  z"></path> <path fill="#03A648" opacity="1.000000" stroke="none" d=" M170.381592,159.187714  	C171.540451,157.832718 173.071335,156.648911 174.843140,155.245377  	C187.499603,149.567047 200.178207,147.991379 213.215424,152.602509  	C215.378021,153.367401 217.394714,154.544861 219.739258,155.759811  	C215.587296,156.897110 211.209122,158.315018 206.755753,158.614456  	C195.903732,159.344131 185.017593,159.577057 174.142914,159.942657  	C173.020966,159.980362 171.883759,159.564362 170.381592,159.187714  z"></path> </svg>